<svg width="206" height="120" viewBox="0 0 206 120" fill="none" xmlns="http://www.w3.org/2000/svg">
  <path
    d="M49.2792 111.726V110.948H52.4954V111.726L51.493 111.898V114.981H55.8345V111.898L54.8321 111.726V110.948H58.0482V111.726L57.0459 111.898V118.927L58.0482 119.099V119.871H54.8321V119.099L55.8345 118.927V115.931H51.493V118.927L52.4954 119.099V119.871H49.2792V119.099L50.2816 118.927V111.898L49.2792 111.726Z"
    fill="#999591" />
  <path
    d="M63.4105 119.871C63.3736 119.691 63.3449 119.53 63.3244 119.387C63.3039 119.244 63.2895 119.101 63.2813 118.958C63.0477 119.256 62.7545 119.506 62.402 119.706C62.0535 119.902 61.6804 120 61.2828 120C60.59 120 60.0632 119.832 59.7024 119.497C59.3416 119.158 59.1613 118.682 59.1613 118.069C59.1613 117.44 59.4154 116.956 59.9238 116.617C60.4362 116.274 61.1372 116.102 62.0269 116.102H63.2752V115.33C63.2752 114.942 63.1522 114.635 62.9062 114.411C62.6602 114.182 62.3179 114.067 61.8793 114.067C61.5759 114.067 61.3074 114.106 61.0737 114.184C60.8441 114.261 60.6576 114.368 60.5141 114.503L60.385 115.201H59.4503V113.914C59.7536 113.673 60.1206 113.481 60.551 113.338C60.9815 113.191 61.4488 113.117 61.9531 113.117C62.7074 113.117 63.3182 113.31 63.7856 113.694C64.2529 114.078 64.4866 114.627 64.4866 115.342V118.535C64.4866 118.621 64.4866 118.705 64.4866 118.786C64.4907 118.868 64.4969 118.95 64.505 119.032L64.997 119.099V119.871H63.4105ZM61.4611 118.989C61.8629 118.989 62.2298 118.893 62.5619 118.701C62.8939 118.509 63.1317 118.278 63.2752 118.008V116.917H61.9838C61.4878 116.917 61.0942 117.032 60.8031 117.26C60.5162 117.489 60.3727 117.767 60.3727 118.094C60.3727 118.384 60.4629 118.607 60.6433 118.762C60.8236 118.913 61.0963 118.989 61.4611 118.989Z"
    fill="#999591" />
  <path
    d="M66.0055 119.099L67.0078 118.927V114.19L66.0055 114.018V113.24H68.2193V118.927L69.2216 119.099V119.871H66.0055V119.099ZM68.2193 111.542H67.0078V110.311H68.2193V111.542Z"
    fill="#999591" />
  <path
    d="M70.1502 114.018V113.24H72.2348L72.3516 114.202C72.5402 113.863 72.7718 113.598 73.0465 113.406C73.3253 113.213 73.643 113.117 73.9997 113.117C74.0939 113.117 74.1903 113.126 74.2887 113.142C74.3912 113.154 74.4691 113.169 74.5224 113.185L74.3625 114.306L73.6737 114.27C73.354 114.27 73.0855 114.345 72.8682 114.496C72.6509 114.644 72.4828 114.852 72.3639 115.122V118.927L73.3663 119.099V119.871H70.1502V119.099L71.1525 118.927V114.19L70.1502 114.018Z"
    fill="#999591" />
  <path
    d="M78.2304 119.056C78.6322 119.056 78.9847 118.934 79.2881 118.688C79.5956 118.439 79.7493 118.135 79.7493 117.775H80.8377L80.85 117.812C80.8705 118.384 80.6143 118.893 80.0814 119.338C79.5525 119.779 78.9355 120 78.2304 120C77.2629 120 76.5229 119.685 76.0105 119.056C75.5022 118.427 75.248 117.636 75.248 116.684V116.427C75.248 115.483 75.5042 114.697 76.0166 114.067C76.5291 113.434 77.267 113.117 78.2304 113.117C78.7634 113.117 79.241 113.205 79.6632 113.381C80.0896 113.557 80.4421 113.798 80.7209 114.104L80.7763 115.575H79.8108L79.5464 114.533C79.4029 114.394 79.2184 114.282 78.9929 114.196C78.7675 114.11 78.5133 114.067 78.2304 114.067C77.595 114.067 77.1399 114.296 76.8653 114.754C76.5947 115.207 76.4594 115.765 76.4594 116.427V116.684C76.4594 117.363 76.5947 117.928 76.8653 118.382C77.1358 118.831 77.5909 119.056 78.2304 119.056Z"
    fill="#999591" />
  <path
    d="M86.7903 118.891C86.5812 119.246 86.3107 119.52 85.9786 119.712C85.6506 119.904 85.2714 120 84.841 120C84.1195 120 83.5558 119.769 83.1499 119.307C82.744 118.846 82.5411 118.127 82.5411 117.15V114.19L81.7786 114.018V113.24H83.7525V117.162C83.7525 117.869 83.8571 118.355 84.0662 118.621C84.2752 118.887 84.6012 119.019 85.0439 119.019C85.4744 119.019 85.829 118.934 86.1077 118.762C86.3906 118.586 86.6038 118.339 86.7473 118.02V114.19L85.8556 114.018V113.24H87.9587V118.927L88.7212 119.099V119.871H86.8703L86.7903 118.891Z"
    fill="#999591" />
  <path
    d="M91.7959 111.64V113.24H93.0565V114.135H91.7959V118.161C91.7959 118.472 91.8594 118.69 91.9865 118.817C92.1177 118.944 92.2899 119.007 92.5031 119.007C92.6097 119.007 92.7286 118.999 92.8597 118.983C92.995 118.962 93.1078 118.942 93.198 118.921L93.364 119.749C93.2492 119.822 93.0811 119.881 92.8597 119.926C92.6384 119.975 92.417 120 92.1956 120C91.7037 120 91.3122 119.853 91.0211 119.559C90.73 119.26 90.5845 118.795 90.5845 118.161V114.135H89.5329V113.24H90.5845V111.64H91.7959Z"
    fill="#999591" />
  <path
    d="M99.3842 115.324H98.4741L98.2773 114.527C98.1297 114.388 97.9432 114.278 97.7177 114.196C97.4964 114.11 97.2442 114.067 96.9614 114.067C96.5309 114.067 96.2111 114.161 96.0021 114.349C95.793 114.537 95.6884 114.764 95.6884 115.03C95.6884 115.291 95.7807 115.497 95.9652 115.649C96.1497 115.8 96.5248 115.935 97.0905 116.053C97.9309 116.233 98.5561 116.478 98.9661 116.789C99.376 117.095 99.581 117.508 99.581 118.027C99.581 118.615 99.3412 119.091 98.8615 119.455C98.386 119.818 97.7628 120 96.9921 120C96.4879 120 96.0349 119.943 95.6331 119.828C95.2313 119.71 94.8726 119.54 94.557 119.32L94.5508 117.806H95.4609L95.6884 118.695C95.8278 118.821 96.0164 118.913 96.2542 118.97C96.4961 119.028 96.742 119.056 96.9921 119.056C97.4226 119.056 97.7587 118.97 98.0006 118.799C98.2466 118.623 98.3696 118.394 98.3696 118.112C98.3696 117.847 98.2671 117.628 98.0621 117.457C97.8612 117.285 97.4779 117.136 96.9122 117.009C96.1046 116.833 95.4958 116.594 95.0858 116.292C94.6759 115.99 94.4709 115.581 94.4709 115.066C94.4709 114.527 94.7005 114.067 95.1596 113.687C95.6229 113.307 96.2234 113.117 96.9614 113.117C97.4656 113.117 97.9186 113.183 98.3204 113.314C98.7221 113.444 99.0562 113.626 99.3227 113.859L99.3842 115.324Z"
    fill="#999591" />
  <path
    d="M103.756 117.469C103.756 116.97 103.9 116.535 104.187 116.163C104.478 115.788 104.91 115.412 105.484 115.036C105.165 114.631 104.927 114.272 104.771 113.957C104.615 113.638 104.537 113.312 104.537 112.977C104.537 112.286 104.736 111.755 105.134 111.383C105.536 111.007 106.087 110.819 106.788 110.819C107.436 110.819 107.963 111.005 108.368 111.377C108.774 111.749 108.977 112.196 108.977 112.719C108.977 113.12 108.869 113.467 108.651 113.761C108.438 114.051 108.12 114.349 107.698 114.656L107.028 115.146L109.119 117.653C109.287 117.387 109.418 117.093 109.512 116.77C109.606 116.447 109.654 116.106 109.654 115.747H110.736C110.736 116.282 110.656 116.778 110.496 117.236C110.336 117.694 110.105 118.104 109.801 118.468L110.939 119.841L110.927 119.871H109.518L108.996 119.246C108.668 119.491 108.305 119.679 107.907 119.81C107.51 119.937 107.098 120 106.671 120C105.782 120 105.072 119.765 104.544 119.295C104.019 118.825 103.756 118.217 103.756 117.469ZM106.671 119.056C106.966 119.056 107.257 119.007 107.544 118.909C107.831 118.807 108.102 118.662 108.356 118.474L106.136 115.808L105.89 115.986C105.517 116.264 105.269 116.529 105.146 116.782C105.027 117.036 104.968 117.265 104.968 117.469C104.968 117.931 105.113 118.31 105.404 118.609C105.696 118.907 106.118 119.056 106.671 119.056ZM105.749 112.964C105.749 113.181 105.804 113.408 105.915 113.645C106.026 113.877 106.192 114.133 106.413 114.411L107.262 113.828C107.495 113.673 107.653 113.506 107.735 113.326C107.821 113.142 107.864 112.94 107.864 112.719C107.864 112.47 107.764 112.249 107.563 112.057C107.366 111.865 107.108 111.769 106.788 111.769C106.456 111.769 106.2 111.886 106.019 112.119C105.839 112.347 105.749 112.629 105.749 112.964Z"
    fill="#999591" />
  <path
    d="M121.288 113.583H120.372L120.144 112.308C119.96 112.153 119.714 112.025 119.407 111.922C119.099 111.82 118.742 111.769 118.337 111.769C117.693 111.769 117.199 111.906 116.855 112.18C116.51 112.449 116.338 112.803 116.338 113.24C116.338 113.628 116.512 113.953 116.861 114.215C117.213 114.472 117.781 114.699 118.564 114.895C119.507 115.128 120.222 115.471 120.71 115.924C121.202 116.378 121.448 116.94 121.448 117.61C121.448 118.329 121.153 118.907 120.563 119.344C119.976 119.781 119.208 120 118.257 120C117.568 120 116.955 119.888 116.418 119.663C115.885 119.438 115.45 119.144 115.114 118.78V117.119H116.024L116.258 118.4C116.492 118.592 116.771 118.75 117.094 118.872C117.418 118.995 117.806 119.056 118.257 119.056C118.867 119.056 119.349 118.927 119.702 118.67C120.058 118.413 120.237 118.063 120.237 117.622C120.237 117.213 120.083 116.872 119.775 116.599C119.468 116.321 118.925 116.088 118.146 115.9C117.199 115.675 116.459 115.344 115.926 114.907C115.393 114.47 115.127 113.92 115.127 113.258C115.127 112.56 115.424 111.98 116.018 111.518C116.613 111.052 117.385 110.819 118.337 110.819C118.964 110.819 119.534 110.927 120.046 111.144C120.563 111.357 120.977 111.616 121.288 111.922V113.583Z"
    fill="#999591" />
  <path
    d="M122.426 119.099L123.428 118.927V111.26L122.426 111.089V110.311H124.64V114.123C124.869 113.804 125.15 113.557 125.482 113.381C125.814 113.205 126.183 113.117 126.589 113.117C127.302 113.117 127.856 113.33 128.249 113.755C128.643 114.18 128.84 114.833 128.84 115.716V118.927L129.842 119.099V119.871H126.626V119.099L127.628 118.927V115.704C127.628 115.156 127.509 114.752 127.272 114.49C127.038 114.229 126.687 114.098 126.22 114.098C125.888 114.098 125.585 114.178 125.31 114.337C125.039 114.492 124.816 114.705 124.64 114.974V118.927L125.642 119.099V119.871H122.426V119.099Z"
    fill="#999591" />
  <path
    d="M135.063 119.871C135.026 119.691 134.997 119.53 134.977 119.387C134.956 119.244 134.942 119.101 134.934 118.958C134.7 119.256 134.407 119.506 134.054 119.706C133.706 119.902 133.333 120 132.935 120C132.242 120 131.715 119.832 131.355 119.497C130.994 119.158 130.814 118.682 130.814 118.069C130.814 117.44 131.068 116.956 131.576 116.617C132.089 116.274 132.79 116.102 133.679 116.102H134.928V115.33C134.928 114.942 134.805 114.635 134.559 114.411C134.313 114.182 133.97 114.067 133.532 114.067C133.228 114.067 132.96 114.106 132.726 114.184C132.496 114.261 132.31 114.368 132.166 114.503L132.037 115.201H131.103V113.914C131.406 113.673 131.773 113.481 132.203 113.338C132.634 113.191 133.101 113.117 133.605 113.117C134.36 113.117 134.971 113.31 135.438 113.694C135.905 114.078 136.139 114.627 136.139 115.342V118.535C136.139 118.621 136.139 118.705 136.139 118.786C136.143 118.868 136.149 118.95 136.157 119.032L136.649 119.099V119.871H135.063ZM133.113 118.989C133.515 118.989 133.882 118.893 134.214 118.701C134.546 118.509 134.784 118.278 134.928 118.008V116.917H133.636C133.14 116.917 132.747 117.032 132.455 117.26C132.168 117.489 132.025 117.767 132.025 118.094C132.025 118.384 132.115 118.607 132.296 118.762C132.476 118.913 132.749 118.989 133.113 118.989Z"
    fill="#999591" />
  <path
    d="M139.841 114.018L139.041 114.141L140.413 117.916L140.523 118.394H140.56L140.677 117.916L142.005 114.141L141.2 114.018V113.24H143.77V114.018L143.223 114.11L140.991 119.871H140.075L137.818 114.11L137.27 114.018V113.24H139.841V114.018Z"
    fill="#999591" />
  <path
    d="M147.546 120C146.619 120 145.882 119.694 145.332 119.081C144.787 118.464 144.514 117.665 144.514 116.684V116.415C144.514 115.471 144.795 114.686 145.357 114.061C145.923 113.432 146.591 113.117 147.362 113.117C148.255 113.117 148.932 113.387 149.391 113.926C149.854 114.466 150.086 115.185 150.086 116.084V116.838H145.769L145.75 116.868C145.763 117.506 145.925 118.031 146.236 118.443C146.548 118.852 146.984 119.056 147.546 119.056C147.956 119.056 148.315 118.999 148.622 118.885C148.934 118.766 149.202 118.605 149.428 118.4L149.901 119.185C149.663 119.414 149.348 119.608 148.954 119.767C148.565 119.922 148.095 120 147.546 120ZM147.362 114.067C146.956 114.067 146.609 114.239 146.322 114.582C146.035 114.921 145.859 115.348 145.793 115.863L145.806 115.894H148.874V115.734C148.874 115.26 148.747 114.864 148.493 114.545C148.239 114.227 147.862 114.067 147.362 114.067Z"
    fill="#999591" />
  <path
    d="M156.376 115.324H155.466L155.27 114.527C155.122 114.388 154.935 114.278 154.71 114.196C154.489 114.11 154.236 114.067 153.954 114.067C153.523 114.067 153.203 114.161 152.994 114.349C152.785 114.537 152.681 114.764 152.681 115.03C152.681 115.291 152.773 115.497 152.957 115.649C153.142 115.8 153.517 115.935 154.083 116.053C154.923 116.233 155.548 116.478 155.958 116.789C156.368 117.095 156.573 117.508 156.573 118.027C156.573 118.615 156.333 119.091 155.854 119.455C155.378 119.818 154.755 120 153.984 120C153.48 120 153.027 119.943 152.625 119.828C152.224 119.71 151.865 119.54 151.549 119.32L151.543 117.806H152.453L152.681 118.695C152.82 118.821 153.009 118.913 153.246 118.97C153.488 119.028 153.734 119.056 153.984 119.056C154.415 119.056 154.751 118.97 154.993 118.799C155.239 118.623 155.362 118.394 155.362 118.112C155.362 117.847 155.259 117.628 155.054 117.457C154.853 117.285 154.47 117.136 153.904 117.009C153.097 116.833 152.488 116.594 152.078 116.292C151.668 115.99 151.463 115.581 151.463 115.066C151.463 114.527 151.693 114.067 152.152 113.687C152.615 113.307 153.216 113.117 153.954 113.117C154.458 113.117 154.911 113.183 155.313 113.314C155.714 113.444 156.049 113.626 156.315 113.859L156.376 115.324Z"
    fill="#999591" />
  <path
    d="M74.4547 8.15111L75.1188 8.05918L78.2489 0H79.2881L82.3628 8.05918L83.0208 8.15111V8.92332H80.4503V8.15111L81.1268 8.03467L80.5364 6.39219H76.9514L76.3426 8.03467L77.019 8.15111V8.92332H74.4547V8.15111ZM77.3265 5.38096H80.1675L78.7777 1.55055H78.7408L77.3265 5.38096Z"
    fill="#999591" />
  <path
    d="M85.4867 3.07046L84.7241 3.20529L85.5912 6.50863L85.7326 7.31149H85.7695L85.9417 6.50863L87.27 2.29212H88.2416L89.576 6.50863L89.7666 7.40342H89.8035L89.9818 6.50863L90.7997 3.20529L90.0249 3.07046V2.29212H92.5584V3.07046L91.9804 3.15626L90.3016 8.92332H89.3239L88.0325 4.88454L87.7558 3.76912L87.7189 3.77525L87.4606 4.88454L86.1938 8.92332H85.2161L83.5373 3.15626L82.9531 3.07046V2.29212H85.4867V3.07046Z"
    fill="#999591" />
  <path
    d="M96.5801 9.05202C95.6536 9.05202 94.9157 8.74559 94.3663 8.13273C93.8211 7.51577 93.5485 6.71701 93.5485 5.73642V5.46676C93.5485 4.52295 93.8293 3.73848 94.3909 3.11336C94.9567 2.48415 95.6249 2.16954 96.3956 2.16954C97.2893 2.16954 97.9658 2.4392 98.4249 2.97853C98.8882 3.51785 99.1198 4.23694 99.1198 5.13581V5.88964H94.8029L94.7845 5.92028C94.7968 6.55766 94.9587 7.08268 95.2703 7.49535C95.5819 7.90392 96.0185 8.10821 96.5801 8.10821C96.9901 8.10821 97.3488 8.05101 97.6562 7.93661C97.9678 7.81812 98.2363 7.65673 98.4618 7.45245L98.9353 8.23691C98.6975 8.46572 98.3819 8.65979 97.9883 8.81914C97.5988 8.97439 97.1294 9.05202 96.5801 9.05202ZM96.3956 3.11949C95.9898 3.11949 95.6434 3.29109 95.3564 3.63429C95.0694 3.97341 94.8931 4.40037 94.8275 4.91518L94.8398 4.94583H97.9084V4.78648C97.9084 4.31253 97.7813 3.91621 97.5271 3.59752C97.2729 3.27883 96.8958 3.11949 96.3956 3.11949Z"
    fill="#999591" />
  <path
    d="M105.411 4.37586H104.5L104.304 3.57913C104.156 3.44022 103.97 3.3299 103.744 3.24819C103.523 3.16239 103.271 3.11949 102.988 3.11949C102.557 3.11949 102.238 3.21346 102.028 3.4014C101.819 3.58935 101.715 3.81611 101.715 4.08168C101.715 4.34317 101.807 4.54951 101.992 4.70068C102.176 4.85185 102.551 4.98668 103.117 5.10517C103.957 5.28494 104.582 5.53009 104.992 5.84061C105.402 6.14704 105.607 6.5597 105.607 7.0786C105.607 7.66695 105.368 8.14294 104.888 8.50657C104.412 8.87021 103.789 9.05202 103.018 9.05202C102.514 9.05202 102.061 8.99482 101.659 8.88042C101.258 8.76193 100.899 8.59237 100.583 8.37174L100.577 6.85797H101.487L101.715 7.74662C101.854 7.87328 102.043 7.96521 102.281 8.02241C102.522 8.07961 102.768 8.10821 103.018 8.10821C103.449 8.10821 103.785 8.02241 104.027 7.85081C104.273 7.67512 104.396 7.44632 104.396 7.1644C104.396 6.89882 104.293 6.68023 104.088 6.50863C103.888 6.33703 103.504 6.1879 102.939 6.06124C102.131 5.88555 101.522 5.64653 101.112 5.34419C100.702 5.04184 100.497 4.63326 100.497 4.11846C100.497 3.57913 100.727 3.11949 101.186 2.73951C101.649 2.35953 102.25 2.16954 102.988 2.16954C103.492 2.16954 103.945 2.23492 104.347 2.36566C104.749 2.49641 105.083 2.67822 105.349 2.91111L105.411 4.37586Z"
    fill="#999591" />
  <path
    d="M106.745 5.54643C106.745 4.56585 107.011 3.75891 107.544 3.12561C108.077 2.48823 108.801 2.16954 109.715 2.16954C110.633 2.16954 111.359 2.48619 111.892 3.11949C112.429 3.75278 112.698 4.56176 112.698 5.54643V5.68126C112.698 6.67002 112.431 7.479 111.898 8.10821C111.365 8.73742 110.642 9.05202 109.727 9.05202C108.805 9.05202 108.077 8.73742 107.544 8.10821C107.011 7.47492 106.745 6.66593 106.745 5.68126V5.54643ZM107.956 5.68126C107.956 6.38402 108.104 6.9642 108.399 7.4218C108.698 7.87941 109.141 8.10821 109.727 8.10821C110.301 8.10821 110.738 7.87941 111.037 7.4218C111.337 6.9642 111.486 6.38402 111.486 5.68126V5.54643C111.486 4.85185 111.337 4.27372 111.037 3.81202C110.738 3.35033 110.297 3.11949 109.715 3.11949C109.133 3.11949 108.694 3.35033 108.399 3.81202C108.104 4.27372 107.956 4.85185 107.956 5.54643V5.68126Z"
    fill="#999591" />
  <path
    d="M113.571 8.15111L114.573 7.97951V3.24206L113.571 3.07046V2.29212H115.662L115.742 3.15626C115.955 2.84165 116.229 2.59855 116.566 2.42695C116.902 2.25535 117.291 2.16954 117.734 2.16954C118.177 2.16954 118.556 2.27169 118.872 2.47598C119.191 2.68027 119.431 2.9867 119.591 3.39528C119.8 3.01938 120.077 2.72112 120.421 2.50049C120.766 2.27986 121.167 2.16954 121.626 2.16954C122.307 2.16954 122.844 2.40243 123.238 2.86821C123.631 3.3299 123.828 4.02653 123.828 4.95808V7.97951L124.83 8.15111V8.92332H121.608V8.15111L122.61 7.97951V4.94583C122.61 4.2921 122.498 3.83041 122.272 3.56075C122.047 3.287 121.713 3.15013 121.27 3.15013C120.848 3.15013 120.507 3.29926 120.249 3.59752C119.995 3.8917 119.847 4.2635 119.806 4.71294V7.97951L120.809 8.15111V8.92332H117.592V8.15111L118.595 7.97951V4.94583C118.595 4.32479 118.478 3.87127 118.244 3.58526C118.015 3.29517 117.681 3.15013 117.242 3.15013C116.873 3.15013 116.57 3.22572 116.332 3.37689C116.094 3.52806 115.912 3.74052 115.785 4.01427V7.97951L116.787 8.15111V8.92332H113.571V8.15111Z"
    fill="#999591" />
  <path
    d="M128.692 9.05202C127.766 9.05202 127.028 8.74559 126.478 8.13273C125.933 7.51577 125.66 6.71701 125.66 5.73642V5.46676C125.66 4.52295 125.941 3.73848 126.503 3.11336C127.069 2.48415 127.737 2.16954 128.508 2.16954C129.401 2.16954 130.078 2.4392 130.537 2.97853C131 3.51785 131.232 4.23694 131.232 5.13581V5.88964H126.915L126.896 5.92028C126.909 6.55766 127.071 7.08268 127.382 7.49535C127.694 7.90392 128.13 8.10821 128.692 8.10821C129.102 8.10821 129.461 8.05101 129.768 7.93661C130.08 7.81812 130.348 7.65673 130.574 7.45245L131.047 8.23691C130.809 8.46572 130.494 8.65979 130.1 8.81914C129.711 8.97439 129.241 9.05202 128.692 9.05202ZM128.508 3.11949C128.102 3.11949 127.755 3.29109 127.468 3.63429C127.181 3.97341 127.005 4.40037 126.939 4.91518L126.952 4.94583H130.02V4.78648C130.02 4.31253 129.893 3.91621 129.639 3.59752C129.385 3.27883 129.008 3.11949 128.508 3.11949Z"
    fill="#999591" />
  <rect y="94.9907" width="206" height="1.79307" fill="#FF9000" />
  <rect y="23.2678" width="206" height="1.79307" fill="#FF9000" />
  <path
    d="M47.7128 58.0319V70.6336C47.7128 71.7047 47.4945 72.7255 47.0579 73.6962C46.6549 74.6334 46.1008 75.4534 45.3956 76.1563C44.6903 76.8592 43.8507 77.4114 42.8768 77.8131C41.9364 78.2482 40.9289 78.4657 39.8542 78.4657C38.7796 78.4657 37.7721 78.2649 36.8317 77.8633C35.8914 77.4616 35.0686 76.9261 34.3633 76.2567C33.6581 75.5538 33.0871 74.7505 32.6505 73.8468C32.2475 72.9096 32.0292 71.9055 31.9957 70.8344V61.5463C31.8949 60.5088 31.4247 59.7557 30.5851 59.2871C31.0553 59.0528 31.5255 58.9356 31.9957 58.9356V47.087C32.0292 46.016 32.2475 45.0119 32.6505 44.0747C33.0871 43.1375 33.6581 42.3342 34.3633 41.6648C35.0686 40.9619 35.8914 40.4096 36.8317 40.008C37.7721 39.6063 38.7796 39.4055 39.8542 39.4055C40.9289 39.4055 41.9364 39.6231 42.8768 40.0582C43.8507 40.4598 44.6903 41.0121 45.3956 41.715C46.1008 42.4179 46.6549 43.2546 47.0579 44.2253C47.4945 45.1625 47.7128 46.1833 47.7128 47.2879C47.7128 47.8569 47.7632 48.2752 47.864 48.543C47.9983 48.8108 48.1326 49.0283 48.267 49.1957C48.4013 49.363 48.5188 49.5136 48.6196 49.6475C48.7539 49.7814 48.8211 49.999 48.8211 50.3002H46.2016C45.6642 50.2333 45.3956 49.9488 45.3956 49.4467C45.3956 49.9488 45.1269 50.2333 44.5895 50.3002H41.9196C41.9196 49.999 41.97 49.7814 42.0708 49.6475C42.2051 49.5136 42.3394 49.363 42.4738 49.1957C42.6081 49.0283 42.7257 48.8108 42.8264 48.543C42.9607 48.2752 43.0279 47.8401 43.0279 47.2376V47.1874C43.0279 46.7523 43.0111 46.2335 42.9775 45.6311C42.9439 44.9951 42.8264 44.3926 42.6249 43.8236C42.4234 43.2546 42.1044 42.7693 41.6678 42.3677C41.2312 41.966 40.6267 41.7652 39.8542 41.7652C39.0482 41.7652 38.4269 41.9828 37.9904 42.4179C37.5873 42.8195 37.2851 43.3048 37.0836 43.8738C36.8821 44.4428 36.7645 45.0453 36.731 45.6813C36.6974 46.3172 36.6806 46.8527 36.6806 47.2879V58.9356C37.1508 58.9356 37.6209 59.0528 38.0911 59.2871C37.2515 59.7557 36.7813 60.5088 36.6806 61.5463V70.6336C36.6806 71.0687 36.6974 71.6043 36.731 72.2402C36.7645 72.8427 36.8821 73.4451 37.0836 74.0476C37.2851 74.6166 37.5873 75.1019 37.9904 75.5036C38.4269 75.9052 39.0482 76.1061 39.8542 76.1061C40.6603 76.1061 41.2648 75.9052 41.6678 75.5036C42.1044 75.1019 42.4234 74.6166 42.6249 74.0476C42.8264 73.4451 42.9439 72.8427 42.9775 72.2402C43.0111 71.6043 43.0279 71.0687 43.0279 70.6336V60.3414C42.6585 60.3749 42.3394 60.5255 42.0708 60.7933C41.8357 61.061 41.7181 61.379 41.7181 61.7472V61.7974C41.6846 62.2994 41.5502 62.7345 41.3151 63.1027C41.1136 63.4374 40.8114 63.7387 40.4084 64.0064C40.0054 64.2407 39.4177 64.3579 38.6452 64.3579V58.0319H47.7128ZM34.7159 56.576C34.7159 56.3751 34.6991 56.1743 34.6656 55.9735C34.6656 55.7727 34.6656 55.5886 34.6656 55.4212V54.2665C34.632 53.5301 34.6152 52.8272 34.6152 52.1578C34.6152 51.4884 34.5984 50.8525 34.5648 50.25C34.5312 49.9488 34.5144 49.681 34.5144 49.4467C34.5144 49.1789 34.4976 48.9112 34.4641 48.6434C34.4641 48.4091 34.4473 48.1916 34.4137 47.9907C34.4137 47.7564 34.4137 47.5556 34.4137 47.3883C34.4137 47.2209 34.3969 47.0703 34.3633 46.9364C34.3633 46.8025 34.3633 46.6854 34.3633 46.585V46.3339C34.3297 46.3339 34.3129 46.3507 34.3129 46.3841V46.585C34.3129 46.6854 34.2961 46.8025 34.2626 46.9364C34.2626 47.0703 34.2626 47.2209 34.2626 47.3883C34.2626 47.5556 34.2458 47.7564 34.2122 47.9907C34.2122 48.1916 34.2122 48.4091 34.2122 48.6434C34.1786 48.9112 34.1618 49.1789 34.1618 49.4467C34.1618 49.681 34.145 49.9488 34.1114 50.25C34.0778 50.8525 34.0611 51.4884 34.0611 52.1578C34.0611 52.8272 34.0443 53.5301 34.0107 54.2665V55.4212C34.0107 55.5886 33.9939 55.7727 33.9603 55.9735C33.9603 56.1743 33.9603 56.3751 33.9603 56.576V61.2451C33.9603 61.3455 33.9603 61.4459 33.9603 61.5463C33.9939 61.6468 34.0107 61.7304 34.0107 61.7974V63.5044C34.0107 63.8725 34.0107 64.2407 34.0107 64.6089C34.0443 64.9436 34.0611 65.2783 34.0611 65.613C34.0611 65.9812 34.0611 66.3326 34.0611 66.6673C34.0946 66.9686 34.1114 67.2531 34.1114 67.5208C34.145 67.8221 34.1618 68.1066 34.1618 68.3743C34.1618 68.6421 34.1786 68.8931 34.2122 69.1274C34.2122 69.3952 34.2122 69.6295 34.2122 69.8303C34.2458 70.0311 34.2626 70.2152 34.2626 70.3826C34.2626 70.5499 34.2626 70.7006 34.2626 70.8344C34.2961 70.9683 34.3129 71.0855 34.3129 71.1859V71.4369C34.3129 71.4704 34.3297 71.4871 34.3633 71.4871V71.1859C34.3633 71.0855 34.3633 70.9683 34.3633 70.8344C34.3969 70.7006 34.4137 70.5499 34.4137 70.3826C34.4137 70.2152 34.4137 70.0311 34.4137 69.8303C34.4473 69.6295 34.4641 69.3952 34.4641 69.1274C34.4976 68.8931 34.5144 68.6421 34.5144 68.3743C34.5144 68.1066 34.5312 67.8221 34.5648 67.5208C34.5648 67.2531 34.5648 66.9686 34.5648 66.6673C34.5984 66.3326 34.6152 65.9812 34.6152 65.613C34.6152 65.2783 34.6152 64.9436 34.6152 64.6089C34.6488 64.2407 34.6656 63.8725 34.6656 63.5044V62.3998C34.6656 62.1321 34.6824 61.9313 34.7159 61.7974V56.576ZM45.6978 63.8558C45.6642 63.5211 45.6474 63.2199 45.6474 62.9521C45.6474 62.6509 45.6306 62.3664 45.5971 62.0986C45.5635 61.5965 45.5131 61.1782 45.4459 60.8435C45.4459 60.7765 45.4291 60.7096 45.3956 60.6426C45.3956 60.5757 45.3956 60.5255 45.3956 60.492V60.3414L45.3452 60.3916V60.492C45.3452 60.5255 45.3284 60.5757 45.2948 60.6426C45.2948 60.7096 45.2948 60.7765 45.2948 60.8435C45.2276 61.1782 45.1773 61.5965 45.1437 62.0986C45.1101 62.3664 45.0933 62.6509 45.0933 62.9521C45.0933 63.2199 45.0765 63.5211 45.0429 63.8558V64.3579C45.0429 64.4583 45.0261 64.5587 44.9926 64.6591C44.9926 64.7261 44.9926 64.793 44.9926 64.8599V66.9686C44.9926 67.069 45.0093 67.1527 45.0429 67.2196V67.9727C45.0429 68.1401 45.0429 68.2907 45.0429 68.4246C45.0765 68.5584 45.0933 68.7091 45.0933 68.8764C45.0933 69.0438 45.0933 69.1944 45.0933 69.3283C45.1269 69.4621 45.1437 69.596 45.1437 69.7299C45.1773 69.8638 45.1941 69.9977 45.1941 70.1316C45.1941 70.232 45.2108 70.3324 45.2444 70.4328C45.2444 70.5332 45.2444 70.6336 45.2444 70.734C45.278 70.8344 45.2948 70.9181 45.2948 70.9851C45.2948 71.052 45.2948 71.1189 45.2948 71.1859C45.3284 71.2528 45.3452 71.303 45.3452 71.3365V71.4369C45.3452 71.4704 45.362 71.4871 45.3956 71.4871V71.3365C45.3956 71.303 45.3956 71.2528 45.3956 71.1859C45.4291 71.1189 45.4459 71.052 45.4459 70.9851C45.4459 70.9181 45.4459 70.8344 45.4459 70.734C45.4795 70.6336 45.4963 70.5332 45.4963 70.4328C45.5299 70.3324 45.5467 70.232 45.5467 70.1316C45.5467 69.9977 45.5635 69.8638 45.5971 69.7299C45.5971 69.596 45.5971 69.4621 45.5971 69.3283C45.6306 69.1944 45.6474 69.0438 45.6474 68.8764C45.6474 68.7091 45.6474 68.5584 45.6474 68.4246C45.681 68.2907 45.6978 68.1401 45.6978 67.9727V67.4706C45.6978 67.3368 45.7146 67.2531 45.7482 67.2196V64.8599C45.7482 64.793 45.7314 64.7261 45.6978 64.6591C45.6978 64.5587 45.6978 64.4583 45.6978 64.3579V63.8558Z"
    fill="#F4EDE8" />
  <path
    d="M66.0133 58.9858C66.5842 58.9858 67.0544 59.103 67.4238 59.3373C67.0544 59.5716 66.7354 59.8895 66.4667 60.2912C66.2316 60.6928 66.0805 61.128 66.0133 61.5965V69.1776C65.9797 70.2487 65.7447 71.2528 65.3081 72.19C64.9051 73.0937 64.3509 73.897 63.6457 74.5999C62.9404 75.2693 62.1176 75.8048 61.1773 76.2065C60.2369 76.6081 59.2294 76.8089 58.1547 76.8089C57.0801 76.8089 56.0725 76.6081 55.1322 76.2065C54.1919 75.8048 53.3691 75.2693 52.6638 74.5999C51.9585 73.897 51.3876 73.0937 50.951 72.19C50.548 71.2528 50.3297 70.2487 50.2962 69.1776V61.5965C50.1954 60.559 49.7252 59.8059 48.8856 59.3373C49.2551 59.103 49.7252 58.9858 50.2962 58.9858V49.2961C50.3297 48.2585 50.548 47.2711 50.951 46.3339C51.3876 45.3968 51.9585 44.5935 52.6638 43.9241C53.3691 43.2212 54.1919 42.6689 55.1322 42.2673C56.0725 41.8656 57.0801 41.6648 58.1547 41.6648C59.2294 41.6648 60.2369 41.8656 61.1773 42.2673C62.1176 42.6689 62.9404 43.2212 63.6457 43.9241C64.3509 44.5935 64.9051 45.3968 65.3081 46.3339C65.7447 47.2711 65.9797 48.2585 66.0133 49.2961V58.9858ZM53.0164 57.1784C53.0164 57.0111 52.9996 56.8605 52.9661 56.7266C52.9661 56.5592 52.9661 56.3919 52.9661 56.2245V55.2706C52.9325 54.6347 52.9157 54.0322 52.9157 53.4632C52.9157 52.8942 52.8989 52.3587 52.8653 51.8566C52.8317 51.6223 52.8149 51.388 52.8149 51.1537C52.8149 50.9194 52.7981 50.7019 52.7646 50.501C52.7646 50.3002 52.7478 50.1161 52.7142 49.9488C52.7142 49.7814 52.7142 49.6308 52.7142 49.4969C52.7142 49.3296 52.6974 49.1957 52.6638 49.0953C52.6638 48.9614 52.6638 48.861 52.6638 48.794V48.543C52.6302 48.543 52.6134 48.5597 52.6134 48.5932V48.794C52.6134 48.861 52.5966 48.9614 52.5631 49.0953C52.5631 49.1957 52.5631 49.3296 52.5631 49.4969C52.5631 49.6308 52.5463 49.7814 52.5127 49.9488C52.5127 50.1161 52.5127 50.3002 52.5127 50.501C52.4791 50.7019 52.4623 50.9194 52.4623 51.1537C52.4623 51.388 52.4455 51.6223 52.4119 51.8566C52.3783 52.3587 52.3615 52.8942 52.3615 53.4632C52.3615 54.0322 52.3448 54.6347 52.3112 55.2706V56.2245C52.3112 56.3919 52.2944 56.5592 52.2608 56.7266C52.2608 56.8605 52.2608 57.0111 52.2608 57.1784V61.1447C52.2608 61.379 52.2776 61.5463 52.3112 61.6468V63.1027C52.3112 63.404 52.3112 63.7052 52.3112 64.0064C52.3448 64.3077 52.3615 64.5922 52.3615 64.8599C52.3615 65.1612 52.3615 65.4457 52.3615 65.7134C52.3951 65.9477 52.4119 66.1988 52.4119 66.4665C52.4455 66.7343 52.4623 66.9853 52.4623 67.2196C52.4623 67.4204 52.4791 67.6213 52.5127 67.8221C52.5127 68.0229 52.5127 68.207 52.5127 68.3743C52.5463 68.5417 52.5631 68.7091 52.5631 68.8764C52.5631 69.0438 52.5631 69.1944 52.5631 69.3283C52.5966 69.4287 52.6134 69.5124 52.6134 69.5793V69.7299C52.6134 69.7634 52.6302 69.7801 52.6638 69.7801V69.5793C52.6638 69.5124 52.6638 69.4287 52.6638 69.3283C52.6974 69.1944 52.7142 69.0438 52.7142 68.8764C52.7142 68.7091 52.7142 68.5417 52.7142 68.3743C52.7478 68.207 52.7646 68.0229 52.7646 67.8221C52.7981 67.6213 52.8149 67.4204 52.8149 67.2196C52.8149 66.9853 52.8317 66.7343 52.8653 66.4665C52.8653 66.1988 52.8653 65.9477 52.8653 65.7134C52.8989 65.4457 52.9157 65.1612 52.9157 64.8599C52.9157 64.5922 52.9157 64.3077 52.9157 64.0064C52.9493 63.7052 52.9661 63.404 52.9661 63.1027V61.6468C52.9996 61.5463 53.0164 61.379 53.0164 61.1447V57.1784ZM61.3284 49.4969C61.3284 49.0618 61.3116 48.5263 61.278 47.8903C61.2444 47.2544 61.1269 46.6519 60.9254 46.0829C60.7239 45.5139 60.4048 45.0286 59.9683 44.6269C59.5653 44.1918 58.9607 43.9743 58.1547 43.9743C57.3487 43.9743 56.7274 44.1918 56.2908 44.6269C55.8878 45.0286 55.5856 45.5139 55.3841 46.0829C55.1826 46.6519 55.065 47.2544 55.0315 47.8903C54.9979 48.5263 54.9811 49.0618 54.9811 49.4969V58.9858C55.552 58.9858 56.0222 59.103 56.3916 59.3373C55.552 59.8059 55.0818 60.559 54.9811 61.5965V68.9768C54.9811 69.4119 54.9979 69.9475 55.0315 70.5834C55.065 71.1859 55.1826 71.7884 55.3841 72.3908C55.5856 72.9598 55.8878 73.4451 56.2908 73.8468C56.7274 74.2484 57.3487 74.4493 58.1547 74.4493C58.9607 74.4493 59.5653 74.2484 59.9683 73.8468C60.4048 73.4451 60.7239 72.9598 60.9254 72.3908C61.1269 71.7884 61.2444 71.1859 61.278 70.5834C61.3116 69.9475 61.3284 69.4119 61.3284 68.9768V61.5965C61.2612 60.5924 60.7911 59.8393 59.9179 59.3373C60.2873 59.103 60.7575 58.9858 61.3284 58.9858V49.4969ZM64.0487 57.1784C64.0487 57.0111 64.0487 56.8605 64.0487 56.7266C64.0487 56.5592 64.0319 56.3919 63.9983 56.2245V55.2706C63.9983 54.6347 63.9815 54.0322 63.9479 53.4632C63.9479 52.8942 63.9311 52.3587 63.8975 51.8566C63.864 51.6223 63.8472 51.388 63.8472 51.1537C63.8472 50.9194 63.8304 50.7019 63.7968 50.501C63.7968 50.3002 63.78 50.1161 63.7464 49.9488C63.7464 49.7814 63.7464 49.6308 63.7464 49.4969C63.7464 49.3296 63.7296 49.1957 63.696 49.0953C63.696 48.9614 63.696 48.861 63.696 48.794V48.543C63.6625 48.543 63.6457 48.5597 63.6457 48.5932V48.794C63.6457 48.861 63.6457 48.9614 63.6457 49.0953C63.6457 49.1957 63.6289 49.3296 63.5953 49.4969C63.5953 49.6308 63.5785 49.7814 63.5449 49.9488C63.5449 50.1161 63.5449 50.3002 63.5449 50.501C63.5113 50.7019 63.4945 50.9194 63.4945 51.1537C63.4945 51.388 63.4778 51.6223 63.4442 51.8566C63.4106 52.3587 63.3938 52.8942 63.3938 53.4632C63.3938 54.0322 63.377 54.6347 63.3434 55.2706V57.1784C63.3098 57.5131 63.293 57.8478 63.293 58.1825C63.293 58.5172 63.293 58.852 63.293 59.1867C63.293 59.5214 63.293 59.8561 63.293 60.1908C63.293 60.492 63.3098 60.81 63.3434 61.1447V63.1027C63.3434 63.404 63.3434 63.7052 63.3434 64.0064C63.377 64.3077 63.3938 64.5922 63.3938 64.8599C63.3938 65.1612 63.3938 65.4457 63.3938 65.7134C63.4274 65.9477 63.4442 66.1988 63.4442 66.4665C63.4778 66.7343 63.4945 66.9853 63.4945 67.2196C63.4945 67.4204 63.5113 67.6213 63.5449 67.8221C63.5449 68.0229 63.5449 68.207 63.5449 68.3743C63.5785 68.5417 63.5953 68.7091 63.5953 68.8764C63.6289 69.0438 63.6457 69.1944 63.6457 69.3283C63.6457 69.4287 63.6457 69.5124 63.6457 69.5793V69.7299C63.6457 69.7634 63.6625 69.7801 63.696 69.7801V69.5793C63.696 69.5124 63.696 69.4287 63.696 69.3283C63.7296 69.1944 63.7464 69.0438 63.7464 68.8764C63.7464 68.7091 63.7464 68.5417 63.7464 68.3743C63.78 68.207 63.7968 68.0229 63.7968 67.8221C63.8304 67.6213 63.8472 67.4204 63.8472 67.2196C63.8472 66.9853 63.864 66.7343 63.8975 66.4665C63.8975 66.1988 63.8975 65.9477 63.8975 65.7134C63.9311 65.4457 63.9479 65.1612 63.9479 64.8599C63.9479 64.5922 63.9479 64.3077 63.9479 64.0064C63.9815 63.7052 63.9983 63.404 63.9983 63.1027V62.1488C63.9983 62.0819 63.9983 61.9982 63.9983 61.8978C64.0319 61.7974 64.0487 61.7137 64.0487 61.6468V57.1784Z"
    fill="#F4EDE8" />
  <path
    d="M84.7074 52.5093C84.7074 54.0154 84.338 55.371 83.5991 56.576C82.8603 57.7809 81.8696 58.7181 80.627 59.3875C81.2315 59.8561 81.7856 60.4083 82.2893 61.0443C82.7931 61.6468 83.2129 62.3162 83.5487 63.0525C83.9182 63.7889 84.2036 64.542 84.4051 65.3118C84.6066 66.0816 84.7074 66.8347 84.7074 67.5711V70.7842C84.6738 71.8553 84.4555 72.8594 84.0525 73.7966C83.6495 74.7003 83.0954 75.5036 82.3901 76.2065C81.6848 76.8759 80.862 77.4114 79.9217 77.8131C78.9814 78.2482 77.9738 78.4657 76.8992 78.4657H72.1639C71.9288 78.4657 71.7273 78.3821 71.5594 78.2147C71.425 78.0474 71.3579 77.8465 71.3579 77.6122C71.3579 77.8465 71.2739 78.0474 71.106 78.2147C70.9381 78.3821 70.7533 78.4657 70.5518 78.4657H67.8819C67.8819 78.1645 67.9323 77.9469 68.0331 77.8131C68.1674 77.6792 68.3017 77.5286 68.4361 77.3612C68.5704 77.2273 68.688 77.0265 68.7887 76.7587C68.923 76.491 68.9902 76.0726 68.9902 75.5036V61.4961C68.8895 60.492 68.4193 59.7557 67.5797 59.2871C68.0163 59.0193 68.4865 58.8854 68.9902 58.8854V42.3677C68.9902 41.7987 68.923 41.3803 68.7887 41.1125C68.688 40.8448 68.5704 40.6439 68.4361 40.51C68.3017 40.3427 68.1674 40.1921 68.0331 40.0582C67.9323 39.9243 67.8819 39.7068 67.8819 39.4055H70.5518C70.7533 39.4055 70.9381 39.4892 71.106 39.6565C71.2739 39.7904 71.3579 39.9745 71.3579 40.2088C71.3579 39.6733 71.6265 39.4055 72.1639 39.4055H76.8992C77.9738 39.4055 78.9814 39.6063 79.9217 40.008C80.862 40.4096 81.6848 40.9619 82.3901 41.6648C83.0954 42.3342 83.6495 43.1375 84.0525 44.0747C84.4555 45.0119 84.6738 45.9992 84.7074 47.0368V52.5093ZM71.7105 56.2245C71.7105 55.9902 71.6937 55.7727 71.6601 55.5718C71.6601 55.3375 71.6601 55.12 71.6601 54.9192V53.6138C71.6265 52.7436 71.6097 51.9235 71.6097 51.1537C71.6097 50.3839 71.5929 49.6643 71.5594 48.9949C71.5258 48.6267 71.509 48.292 71.509 47.9907C71.509 47.6895 71.4922 47.405 71.4586 47.1372C71.4586 46.8695 71.4418 46.6184 71.4082 46.3841C71.4082 46.1164 71.4082 45.8988 71.4082 45.7315C71.4082 45.5306 71.3914 45.3466 71.3579 45.1792C71.3579 45.0118 71.3579 44.878 71.3579 44.7776V44.4763C71.3243 44.5098 71.3075 44.5433 71.3075 44.5767V44.7776C71.3075 44.878 71.2907 45.0118 71.2571 45.1792C71.2571 45.3466 71.2571 45.5306 71.2571 45.7315C71.2571 45.8988 71.2403 46.1164 71.2067 46.3841C71.2067 46.6184 71.2067 46.8695 71.2067 47.1372C71.1731 47.405 71.1564 47.6895 71.1564 47.9907C71.1564 48.292 71.1396 48.6267 71.106 48.9949C71.0724 49.6643 71.0556 50.3839 71.0556 51.1537C71.0556 51.9235 71.0388 52.7436 71.0052 53.6138V54.9192C71.0052 55.12 71.0052 55.3375 71.0052 55.5718C71.0052 55.7727 70.9884 55.9902 70.9548 56.2245V61.5965C70.9548 61.7304 70.9548 61.8476 70.9548 61.948C70.9884 62.0484 71.0052 62.1655 71.0052 62.2994V64.2073C71.0052 64.6424 71.0052 65.0775 71.0052 65.5126C71.0388 65.9143 71.0556 66.2992 71.0556 66.6673C71.0556 67.0355 71.0556 67.4037 71.0556 67.7719C71.0892 68.1401 71.106 68.5082 71.106 68.8764C71.1396 69.0438 71.1564 69.2111 71.1564 69.3785C71.1564 69.5124 71.1564 69.663 71.1564 69.8303C71.1564 69.9977 71.1564 70.1483 71.1564 70.2822C71.1899 70.4161 71.2067 70.5499 71.2067 70.6838C71.2067 70.9516 71.2067 71.2194 71.2067 71.4871C71.2403 71.7214 71.2571 71.939 71.2571 72.1398C71.2571 72.3406 71.2571 72.5247 71.2571 72.6921C71.2907 72.8259 71.3075 72.9431 71.3075 73.0435V73.2945C71.3075 73.328 71.3243 73.3615 71.3579 73.3949V73.0435C71.3579 72.9431 71.3579 72.8259 71.3579 72.6921C71.3914 72.5247 71.4082 72.3406 71.4082 72.1398C71.4082 71.939 71.4082 71.7214 71.4082 71.4871C71.4418 71.2194 71.4586 70.9516 71.4586 70.6838C71.4922 70.5499 71.509 70.4161 71.509 70.2822C71.509 70.1483 71.509 69.9977 71.509 69.8303C71.509 69.663 71.509 69.5124 71.509 69.3785C71.5426 69.2111 71.5594 69.0438 71.5594 68.8764C71.5594 68.5082 71.5594 68.1401 71.5594 67.7719C71.5929 67.4037 71.6097 67.0355 71.6097 66.6673C71.6097 66.2992 71.6097 65.9143 71.6097 65.5126C71.6433 65.0775 71.6601 64.6424 71.6601 64.2073V62.9521C71.6601 62.6509 71.6769 62.4333 71.7105 62.2994V56.2245ZM82.0878 69.7801C82.0543 69.8805 82.0375 70.0479 82.0375 70.2822V71.1859C82.0375 71.3532 82.0207 71.5039 81.9871 71.6377C81.9871 71.7716 81.9871 71.9055 81.9871 72.0394C81.9871 72.1733 81.9703 72.2904 81.9367 72.3908C81.9367 72.4912 81.9367 72.5916 81.9367 72.6921V72.8427C81.9031 72.8761 81.8863 72.9264 81.8863 72.9933V73.2443C81.8528 73.2778 81.836 73.3113 81.836 73.3447V73.4451C81.836 73.4786 81.8192 73.5121 81.7856 73.5456C81.7856 73.5456 81.7856 73.5623 81.7856 73.5958C81.7856 73.6292 81.7688 73.6627 81.7352 73.6962H81.7856C81.7856 73.6962 81.8024 73.6627 81.836 73.5958C81.836 73.5958 81.8528 73.5623 81.8863 73.4954C81.9199 73.4619 81.9367 73.4284 81.9367 73.3949C81.9703 73.3615 81.9871 73.328 81.9871 73.2945C82.0207 73.2611 82.0375 73.2276 82.0375 73.1941C82.0711 73.1606 82.0878 73.1104 82.0878 73.0435C82.155 72.9766 82.1886 72.8929 82.1886 72.7925C82.2558 72.6586 82.3229 72.4243 82.3901 72.0896C82.4573 71.8888 82.4908 71.7549 82.4908 71.6879C82.5244 71.621 82.5412 71.5541 82.5412 71.4871C82.5412 71.3867 82.558 71.303 82.5916 71.2361C82.5916 71.1691 82.5916 71.1022 82.5916 71.0353C82.6252 70.9349 82.642 70.8512 82.642 70.7842C82.6756 70.6838 82.6924 70.5332 82.6924 70.3324C82.7259 70.165 82.7427 69.9977 82.7427 69.8303C82.7427 69.663 82.7595 69.4956 82.7931 69.3283V67.2196C82.7931 67.0523 82.7763 66.8849 82.7427 66.7176C82.7427 66.5502 82.7259 66.3828 82.6924 66.2155C82.6924 66.0147 82.6756 65.8641 82.642 65.7636C82.642 65.6967 82.6252 65.6298 82.5916 65.5628C82.5916 65.4624 82.5916 65.3787 82.5916 65.3118C82.558 65.2448 82.5412 65.1779 82.5412 65.111C82.5412 65.0105 82.5244 64.9269 82.4908 64.8599C82.4908 64.793 82.4741 64.7261 82.4405 64.6591C82.4405 64.5922 82.4405 64.5252 82.4405 64.4583C82.3733 64.2575 82.3397 64.1403 82.3397 64.1068C82.3061 64.0064 82.2558 63.8893 82.1886 63.7554C82.1886 63.655 82.155 63.5713 82.0878 63.5044C82.0878 63.404 82.0543 63.3203 81.9871 63.2533C81.9199 63.1195 81.8696 63.019 81.836 62.9521C81.8024 62.9186 81.7856 62.8852 81.7856 62.8517H81.7352C81.7352 62.8517 81.752 62.8852 81.7856 62.9521C81.7856 62.9856 81.7856 63.019 81.7856 63.0525C81.8192 63.0525 81.836 63.0693 81.836 63.1027C81.836 63.1697 81.8528 63.2366 81.8863 63.3035V63.5546C81.9199 63.6215 81.9367 63.7052 81.9367 63.8056C81.9367 63.973 81.9535 64.0901 81.9871 64.1571V64.5085C82.0207 64.6424 82.0375 64.7763 82.0375 64.9101C82.0375 65.044 82.0375 65.1946 82.0375 65.362V65.8138C82.0375 65.8808 82.0375 65.9645 82.0375 66.0649C82.0711 66.1318 82.0878 66.1988 82.0878 66.2657V69.7801ZM80.0224 67.5711C80.0224 67.1359 80.0057 66.5167 79.9721 65.7134C79.9385 64.9101 79.8209 64.1068 79.6194 63.3035C79.4179 62.5003 79.0989 61.8141 78.6623 61.2451C78.2593 60.6426 77.6548 60.3414 76.8488 60.3414H75.0353C74.6659 60.3414 74.3468 60.4753 74.0781 60.743C73.8095 61.0108 73.6751 61.3288 73.6751 61.697V74.7505C73.6751 75.1187 73.8095 75.4367 74.0781 75.7044C74.3468 75.9387 74.6659 76.0726 75.0353 76.1061H76.8488C77.6548 76.1061 78.2593 75.9052 78.6623 75.5036C79.0989 75.0685 79.4179 74.5664 79.6194 73.9974C79.8209 73.4284 79.9385 72.8259 79.9721 72.19C80.0057 71.5541 80.0224 71.0185 80.0224 70.5834V67.5711ZM80.0224 47.2376C80.0224 46.8025 80.0057 46.2837 79.9721 45.6813C79.9385 45.0453 79.8209 44.4428 79.6194 43.8738C79.4179 43.3048 79.0989 42.8195 78.6623 42.4179C78.2593 41.9828 77.6548 41.7652 76.8488 41.7652H75.0353C74.6659 41.7652 74.3468 41.8991 74.0781 42.1668C73.8095 42.4346 73.6751 42.7526 73.6751 43.1208V56.6262C73.6751 56.9943 73.8095 57.3123 74.0781 57.5801C74.3468 57.8478 74.6659 57.9817 75.0353 57.9817H76.8488C77.6548 57.9817 78.2593 57.7809 78.6623 57.3792C79.0989 56.9776 79.4179 56.4923 79.6194 55.9233C79.8209 55.3208 79.9385 54.7183 79.9721 54.1159C80.0057 53.4799 80.0224 52.9444 80.0224 52.5093V47.2376ZM82.2893 53.8648C82.3565 53.664 82.3901 53.5301 82.3901 53.4632C82.4573 53.3293 82.4908 53.1954 82.4908 53.0615C82.5244 52.9946 82.5412 52.9277 82.5412 52.8607C82.5412 52.7603 82.558 52.6766 82.5916 52.6097C82.5916 52.5427 82.5916 52.4758 82.5916 52.4089C82.6252 52.3084 82.642 52.208 82.642 52.1076C82.6756 52.0072 82.6924 51.8399 82.6924 51.6056C82.7259 51.4382 82.7427 51.2709 82.7427 51.1035C82.7427 50.9362 82.7595 50.7688 82.7931 50.6014V49.4969C82.7931 49.1287 82.7931 48.7773 82.7931 48.4426C82.7931 48.0744 82.7763 47.723 82.7427 47.3883C82.7091 47.2879 82.6924 47.2042 82.6924 47.1372C82.6924 47.0368 82.6756 46.9531 82.642 46.8862C82.642 46.6519 82.6252 46.4846 82.5916 46.3841C82.558 46.2168 82.5244 46.0662 82.4908 45.9323C82.4908 45.7984 82.4741 45.6645 82.4405 45.5306C82.3733 45.3298 82.3397 45.1959 82.3397 45.129C82.2726 44.9951 82.239 44.8947 82.239 44.8278C82.1718 44.6939 82.1214 44.5935 82.0878 44.5265C82.0878 44.4261 82.0543 44.3424 81.9871 44.2755C81.9535 44.1751 81.9031 44.0579 81.836 43.9241L81.7352 43.8236V43.8738C81.7352 43.9073 81.7352 43.9241 81.7352 43.9241C81.7688 43.9241 81.7856 43.9408 81.7856 43.9743C81.8192 44.0077 81.836 44.0579 81.836 44.1249C81.836 44.1918 81.8528 44.2588 81.8863 44.3257V44.5767C81.9199 44.6437 81.9367 44.7441 81.9367 44.878C81.9367 44.9449 81.9367 45.0118 81.9367 45.0788C81.9703 45.1123 81.9871 45.1625 81.9871 45.2294V45.5808C82.0207 45.7147 82.0375 45.8486 82.0375 45.9825C82.0375 46.1164 82.0375 46.267 82.0375 46.4344V46.9364C82.0375 47.0034 82.0375 47.087 82.0375 47.1874C82.0711 47.2544 82.0878 47.3213 82.0878 47.3883V51.1035C82.0543 51.2039 82.0375 51.3713 82.0375 51.6056V52.5595C82.0375 52.7268 82.0207 52.8774 81.9871 53.0113C81.9871 53.1452 81.9871 53.2791 81.9871 53.413C81.9871 53.5469 81.9703 53.6807 81.9367 53.8146C81.9367 53.915 81.9367 54.0154 81.9367 54.1159C81.9367 54.2832 81.9199 54.3836 81.8863 54.4171V54.7183C81.8528 54.7183 81.836 54.7518 81.836 54.8187V54.9192C81.836 54.9526 81.8192 54.9861 81.7856 55.0196C81.7856 55.0196 81.7856 55.0363 81.7856 55.0698C81.7856 55.1032 81.7688 55.1367 81.7352 55.1702L81.836 55.0698C81.836 55.0363 81.836 55.0196 81.836 55.0196C81.8696 54.9861 81.8863 54.9526 81.8863 54.9192C81.9199 54.9192 81.9367 54.8857 81.9367 54.8187C81.9703 54.8187 81.9871 54.7853 81.9871 54.7183C82.0207 54.7183 82.0375 54.6849 82.0375 54.6179C82.0711 54.5844 82.0878 54.5342 82.0878 54.4673C82.155 54.4004 82.1886 54.3167 82.1886 54.2163C82.2558 54.0154 82.2893 53.8983 82.2893 53.8648Z"
    fill="#F4EDE8" />
  <path
    d="M103.762 73.7966C103.896 74.3656 104.047 74.784 104.215 75.0517C104.383 75.3195 104.551 75.5371 104.719 75.7044C104.887 75.8718 105.038 76.0224 105.172 76.1563C105.306 76.2902 105.407 76.5077 105.474 76.8089H102.804C102.569 76.8089 102.351 76.7253 102.15 76.5579C101.982 76.3906 101.881 76.1897 101.847 75.9554C101.881 76.1897 101.83 76.3906 101.696 76.5579C101.562 76.7253 101.394 76.8089 101.192 76.8089H98.5225C98.4553 76.5077 98.4721 76.2902 98.5729 76.1563C98.6736 76.0224 98.7744 75.8885 98.8751 75.7546C98.9759 75.5873 99.0598 75.3697 99.127 75.1019C99.1942 74.8007 99.1774 74.3489 99.0766 73.7464V73.6962L97.9683 68.0229C97.9012 67.6882 97.7165 67.4037 97.4142 67.1694C97.112 66.9016 96.7761 66.7678 96.4067 66.7678H92.9308C92.5614 66.7678 92.2255 66.9016 91.9233 67.1694C91.621 67.4037 91.4363 67.6882 91.3691 68.0229L90.3113 73.6962V73.7464C90.2105 74.3489 90.1769 74.8007 90.2105 75.1019C90.2777 75.3697 90.3616 75.5873 90.4624 75.7546C90.5967 75.8885 90.6975 76.0224 90.7646 76.1563C90.8654 76.2902 90.899 76.5077 90.8654 76.8089H88.1955C87.9604 76.8089 87.7757 76.7253 87.6414 76.5579C87.507 76.3906 87.4566 76.1897 87.4902 75.9554C87.4566 76.1897 87.3559 76.3906 87.188 76.5579C87.0201 76.7253 86.8186 76.8089 86.5835 76.8089H83.9136C83.9472 76.5077 84.0311 76.2902 84.1654 76.1563C84.2998 76.0224 84.4509 75.8718 84.6188 75.7044C84.7867 75.5371 84.9547 75.3195 85.1226 75.0517C85.2905 74.784 85.4416 74.3656 85.576 73.7966L87.8429 61.5965C87.91 61.128 87.8596 60.6928 87.6917 60.2912C87.5238 59.8895 87.2551 59.5716 86.8857 59.3373C87.4231 59.103 87.91 58.9858 88.3466 58.9858L91.0669 44.6771C91.1676 44.1081 91.1844 43.6898 91.1173 43.422C91.0501 43.1208 90.9661 42.9032 90.8654 42.7693C90.7646 42.602 90.6639 42.4513 90.5631 42.3175C90.4624 42.1836 90.4456 41.966 90.5128 41.6648H93.8879C94.3917 41.7317 94.6436 42.0162 94.6436 42.5183C94.6436 42.284 94.7107 42.0999 94.8451 41.966C95.013 41.7987 95.1977 41.6983 95.3992 41.6648H98.8247C98.8919 41.966 98.8751 42.1836 98.7744 42.3175C98.7072 42.4513 98.6232 42.602 98.5225 42.7693C98.4217 42.9032 98.3378 43.1208 98.2706 43.422C98.2034 43.6898 98.2202 44.1081 98.321 44.6771L100.991 58.9858C101.26 58.9858 101.511 59.0193 101.747 59.0863C101.982 59.1532 102.217 59.2369 102.452 59.3373C101.713 59.8059 101.394 60.559 101.495 61.5965L103.762 73.7966ZM91.6714 55.8229C91.7386 55.622 91.7722 55.438 91.7722 55.2706C91.8057 55.0698 91.8393 54.8857 91.8729 54.7183C92.0408 53.9485 92.1752 53.2289 92.2759 52.5595C92.3767 51.8566 92.4774 51.2207 92.5782 50.6517C92.6453 50.3839 92.6789 50.1161 92.6789 49.8484C92.7125 49.5806 92.7461 49.3128 92.7797 49.0451C92.8132 48.8108 92.8468 48.5932 92.8804 48.3924C92.914 48.1916 92.9476 48.0075 92.9812 47.8401C93.0148 47.6728 93.0315 47.5221 93.0315 47.3883C93.0315 47.2209 93.0483 47.087 93.0819 46.9866V46.7858L93.0315 46.9866C92.998 47.087 92.9644 47.2042 92.9308 47.3381C92.8972 47.4719 92.8636 47.6226 92.83 47.7899C92.7629 47.9573 92.7125 48.1581 92.6789 48.3924C92.6453 48.5932 92.595 48.794 92.5278 48.9949C92.4606 49.2626 92.3934 49.5304 92.3263 49.7981C92.2927 50.0659 92.2423 50.3337 92.1752 50.6014C92.0072 51.1704 91.8393 51.7897 91.6714 52.4591C91.5371 53.095 91.3859 53.7979 91.218 54.5677C91.218 54.7685 91.2012 54.9526 91.1676 55.12C91.1341 55.2873 91.0837 55.4714 91.0165 55.6722C90.9829 55.8731 90.9493 56.0739 90.9158 56.2747C90.8822 56.4421 90.8486 56.6262 90.815 56.827C90.7143 57.1952 90.6135 57.5801 90.5128 57.9817C90.4456 58.3834 90.3784 58.785 90.3113 59.1867C90.2441 59.5548 90.1601 59.9398 90.0594 60.3414C89.9922 60.743 89.925 61.128 89.8579 61.4961C89.8243 61.5965 89.8075 61.697 89.8075 61.7974C89.8075 61.8643 89.7907 61.948 89.7571 62.0484C89.69 62.3162 89.6564 62.517 89.6564 62.6509C89.5556 62.9856 89.4885 63.3538 89.4549 63.7554C89.3877 64.1236 89.3205 64.4918 89.2534 64.8599C89.1862 65.2281 89.1358 65.5628 89.1022 65.8641C89.0015 66.6339 88.9007 67.2698 88.8 67.7719C88.7328 68.0396 88.6824 68.3074 88.6489 68.5752C88.6153 68.8429 88.5817 69.1107 88.5481 69.3785C88.4809 69.6128 88.4306 69.8471 88.397 70.0814C88.397 70.2822 88.3802 70.4663 88.3466 70.6336C88.313 70.801 88.2962 70.9516 88.2962 71.0855C88.2962 71.2194 88.2794 71.3365 88.2459 71.4369C88.2459 71.5039 88.2291 71.5541 88.1955 71.5875C88.1955 71.5875 88.1955 71.6043 88.1955 71.6377V71.6879C88.2291 71.6879 88.2459 71.6712 88.2459 71.6377C88.2459 71.5708 88.2627 71.5039 88.2962 71.4369C88.3298 71.37 88.3466 71.2696 88.3466 71.1357C88.3802 70.9683 88.4306 70.801 88.4977 70.6336C88.5649 70.4663 88.6153 70.2822 88.6489 70.0814C88.716 69.8805 88.7832 69.663 88.8504 69.4287C88.9175 69.1944 88.9679 68.9433 89.0015 68.6756C89.0687 68.4078 89.119 68.1401 89.1526 67.8723C89.2198 67.6045 89.287 67.32 89.3541 67.0188C89.4549 66.6841 89.5388 66.3494 89.606 66.0147C89.6732 65.68 89.7403 65.3285 89.8075 64.9603C89.9083 64.5922 90.009 64.224 90.1098 63.8558C90.1433 63.6885 90.1769 63.5211 90.2105 63.3538C90.2441 63.1529 90.2777 62.9688 90.3113 62.8015L90.4624 62.199C90.496 62.0986 90.5128 61.9982 90.5128 61.8978C90.5128 61.7974 90.5296 61.697 90.5631 61.5965C90.6303 61.2284 90.7143 60.8602 90.815 60.492C90.9158 60.0904 90.9997 59.6887 91.0669 59.2871C91.1341 58.9189 91.2012 58.534 91.2684 58.1323C91.3356 57.7307 91.4027 57.3458 91.4699 56.9776C91.5035 56.7768 91.5371 56.576 91.5706 56.3751C91.6042 56.1743 91.6378 55.9902 91.6714 55.8229ZM95.9533 64.4081C96.3227 64.3746 96.6082 64.2407 96.8097 64.0064C97.0448 63.7387 97.1288 63.4207 97.0616 63.0525L96.7593 61.5965C96.625 61.128 96.3899 60.6928 96.0541 60.2912C95.7518 59.8895 95.3824 59.5716 94.9458 59.3373C95.3488 59.103 95.7854 58.9858 96.2556 58.9858L94.6436 50.4006L93.0315 58.9858C93.4681 58.9858 93.9215 59.103 94.3917 59.3373C93.9215 59.5716 93.5185 59.8895 93.1827 60.2912C92.8804 60.6928 92.6789 61.128 92.5782 61.5965L92.3263 63.0525C92.2591 63.4207 92.3263 63.7387 92.5278 64.0064C92.7293 64.2407 92.998 64.3746 93.3338 64.4081H95.9533ZM101.041 71.4369C101.041 71.5039 101.041 71.5541 101.041 71.5875C101.075 71.5875 101.092 71.6043 101.092 71.6377V71.4369C101.058 71.3365 101.041 71.2194 101.041 71.0855C101.041 70.9516 101.024 70.801 100.991 70.6336C100.957 70.4663 100.924 70.2822 100.89 70.0814C100.89 69.8471 100.857 69.6128 100.789 69.3785C100.756 69.1107 100.722 68.8429 100.689 68.5752C100.655 68.3074 100.605 68.0396 100.537 67.7719C100.437 67.2698 100.336 66.6339 100.235 65.8641C100.168 65.5628 100.101 65.2281 100.034 64.8599C100 64.4918 99.9498 64.1236 99.8826 63.7554C99.8154 63.5546 99.7651 63.3705 99.7315 63.2031C99.7315 63.0358 99.6979 62.8517 99.6307 62.6509C99.6307 62.517 99.5972 62.3162 99.53 62.0484C99.53 61.948 99.5132 61.8643 99.4796 61.7974C99.4796 61.697 99.4796 61.5965 99.4796 61.4961C99.4124 61.128 99.3285 60.743 99.2277 60.3414C99.1606 59.9398 99.0934 59.5548 99.0262 59.1867C98.9591 58.785 98.8751 58.3834 98.7744 57.9817C98.7072 57.5801 98.6232 57.1952 98.5225 56.827C98.4889 56.6262 98.4553 56.4421 98.4217 56.2747C98.3881 56.0739 98.3546 55.8731 98.321 55.6722C98.2538 55.4714 98.2034 55.2873 98.1698 55.12C98.1363 54.9526 98.1027 54.7685 98.0691 54.5677C97.9012 53.7979 97.7333 53.095 97.5653 52.4591C97.431 51.7897 97.3135 51.1704 97.2127 50.6014C97.1455 50.3337 97.0784 50.0659 97.0112 49.7981C96.944 49.5304 96.8769 49.2626 96.8097 48.9949C96.7425 48.794 96.6754 48.5932 96.6082 48.3924C96.5746 48.1581 96.5242 47.9573 96.4571 47.7899C96.4235 47.6226 96.3899 47.4719 96.3563 47.3381C96.3227 47.2042 96.2892 47.087 96.2556 46.9866L96.2052 46.7858V46.9866C96.2388 47.154 96.2892 47.4385 96.3563 47.8401C96.3563 48.0075 96.3731 48.1916 96.4067 48.3924C96.4403 48.5932 96.4739 48.8108 96.5075 49.0451C96.541 49.3128 96.5746 49.5806 96.6082 49.8484C96.6418 50.1161 96.6922 50.3839 96.7593 50.6517C96.8601 51.2207 96.9608 51.8566 97.0616 52.5595C97.1623 53.2289 97.2799 53.9485 97.4142 54.7183C97.4478 54.8857 97.4646 55.0698 97.4646 55.2706C97.4982 55.438 97.5486 55.622 97.6157 55.8229C97.6493 55.9902 97.6829 56.1743 97.7165 56.3751C97.7501 56.576 97.7836 56.7768 97.8172 56.9776C97.8844 57.3458 97.9516 57.7307 98.0187 58.1323C98.1195 58.534 98.2034 58.9189 98.2706 59.2871C98.3378 59.6887 98.4217 60.0904 98.5225 60.492C98.6232 60.8602 98.7072 61.2284 98.7744 61.5965C98.8079 61.697 98.8247 61.7974 98.8247 61.8978C98.8247 61.9982 98.8415 62.0986 98.8751 62.199L99.0262 62.8015C99.0598 62.9688 99.0934 63.1529 99.127 63.3538C99.1606 63.5211 99.1942 63.6885 99.2277 63.8558C99.3285 64.224 99.4124 64.5922 99.4796 64.9603C99.5468 65.3285 99.6139 65.68 99.6811 66.0147C99.7483 66.3494 99.8154 66.6841 99.8826 67.0188C99.9834 67.32 100.067 67.6045 100.134 67.8723C100.202 68.1401 100.269 68.4078 100.336 68.6756C100.403 68.9433 100.47 69.1944 100.537 69.4287C100.638 69.8973 100.739 70.2989 100.84 70.6336C100.907 70.801 100.941 70.9683 100.941 71.1357C100.974 71.2696 101.008 71.37 101.041 71.4369Z"
    fill="#F4EDE8" />
  <path
    d="M124.898 78.9176C125.267 78.9845 125.519 79.1017 125.653 79.269C125.821 79.4364 125.939 79.6037 126.006 79.7711C126.073 79.9719 126.107 80.1895 126.107 80.4238C125.032 80.4238 124.024 80.2899 123.084 80.0221C122.144 79.7544 121.304 79.3192 120.565 78.7168C119.86 78.1143 119.289 77.3277 118.853 76.3571C118.45 75.3864 118.248 74.1982 118.248 72.7925V65.9143C118.248 65.4791 118.231 64.9436 118.198 64.3077C118.164 63.6717 118.047 63.0693 117.845 62.5003C117.644 61.9313 117.324 61.4459 116.888 61.0443C116.485 60.6092 115.88 60.3916 115.074 60.3916H113.009C112.707 60.4585 112.438 60.6259 112.203 60.8937C112.001 61.128 111.901 61.4125 111.901 61.7472V73.7464C111.901 74.3489 111.951 74.8007 112.052 75.1019C112.186 75.3697 112.321 75.5873 112.455 75.7546C112.589 75.8885 112.707 76.0224 112.807 76.1563C112.942 76.2902 113.009 76.5077 113.009 76.8089H110.339C110.138 76.8089 109.953 76.7253 109.785 76.5579C109.617 76.3906 109.533 76.2065 109.533 76.0057C109.533 76.2065 109.449 76.3906 109.281 76.5579C109.147 76.7253 108.962 76.8089 108.727 76.8089H106.108C106.108 76.5077 106.158 76.2902 106.259 76.1563C106.393 76.0224 106.527 75.8885 106.662 75.7546C106.796 75.5873 106.914 75.3697 107.014 75.1019C107.149 74.8342 107.216 74.4158 107.216 73.8468V61.5965C107.115 60.559 106.645 59.8059 105.805 59.3373C106.175 59.103 106.645 58.9858 107.216 58.9858V44.6269C107.216 44.0579 107.149 43.6396 107.014 43.3718C106.914 43.104 106.796 42.9032 106.662 42.7693C106.527 42.602 106.393 42.4513 106.259 42.3175C106.158 42.1836 106.108 41.966 106.108 41.6648H108.777C108.979 41.6648 109.164 41.7485 109.332 41.9158C109.499 42.0497 109.583 42.2338 109.583 42.4681C109.583 41.9326 109.852 41.6648 110.389 41.6648H115.125C116.199 41.6648 117.207 41.8656 118.147 42.2673C119.088 42.6689 119.91 43.2212 120.616 43.9241C121.321 44.5935 121.875 45.3968 122.278 46.3339C122.681 47.2711 122.899 48.2585 122.933 49.2961V52.5595C122.933 53.9652 122.597 55.2539 121.925 56.4253C121.254 57.5968 120.347 58.534 119.205 59.2369C120.347 59.9063 121.254 60.8435 121.925 62.0484C122.597 63.2199 122.933 64.5085 122.933 65.9143V72.5916C122.933 73.2945 122.933 74.0141 122.933 74.7505C122.967 75.4534 123.051 76.1061 123.185 76.7085C123.319 77.2775 123.521 77.7629 123.789 78.1645C124.058 78.5662 124.427 78.8172 124.898 78.9176ZM120.313 51.706C120.28 51.7729 120.263 51.8566 120.263 51.957V53.1117C120.229 53.2456 120.213 53.3795 120.213 53.5134C120.213 53.6138 120.213 53.7142 120.213 53.8146C120.213 53.8816 120.196 53.9318 120.162 53.9652C120.162 53.9987 120.162 54.0489 120.162 54.1159V54.4171C120.129 54.484 120.112 54.5677 120.112 54.6681C120.112 54.7351 120.095 54.802 120.062 54.8689C120.062 54.9359 120.045 54.9861 120.011 55.0196V55.12L119.961 55.2204C119.961 55.2204 119.994 55.2037 120.062 55.1702V55.12L120.112 55.0698C120.146 55.0363 120.162 55.0196 120.162 55.0196C120.162 54.9861 120.179 54.9526 120.213 54.9192C120.246 54.8522 120.28 54.7853 120.313 54.7183C120.347 54.6179 120.381 54.5342 120.414 54.4673C120.448 54.4004 120.465 54.3669 120.465 54.3669C120.465 54.3334 120.481 54.2832 120.515 54.2163C120.549 54.1493 120.565 54.0991 120.565 54.0657C120.565 53.9987 120.582 53.9318 120.616 53.8648C120.649 53.7979 120.666 53.7477 120.666 53.7142C120.666 53.6807 120.683 53.6305 120.716 53.5636C120.716 53.4967 120.716 53.4464 120.716 53.413C120.75 53.346 120.767 53.2791 120.767 53.2122C120.8 53.0783 120.817 52.9444 120.817 52.8105C120.851 52.6766 120.884 52.5427 120.918 52.4089C120.952 52.3084 120.968 52.1578 120.968 51.957C120.968 51.8901 120.968 51.8231 120.968 51.7562C121.002 51.6892 121.019 51.6223 121.019 51.5554V49.7981C121.019 49.5973 121.002 49.4467 120.968 49.3463V49.1455C120.968 49.0785 120.952 49.0451 120.918 49.0451C120.918 49.0116 120.918 48.9614 120.918 48.8944C120.918 48.7271 120.884 48.4761 120.817 48.1414C120.784 48.0744 120.767 48.0075 120.767 47.9405C120.767 47.8736 120.75 47.8066 120.716 47.7397C120.716 47.7062 120.7 47.6895 120.666 47.6895C120.666 47.656 120.666 47.6226 120.666 47.5891C120.666 47.5556 120.649 47.5389 120.616 47.5389C120.616 47.5054 120.616 47.4719 120.616 47.4385C120.582 47.3715 120.565 47.3213 120.565 47.2879C120.565 47.2544 120.549 47.2042 120.515 47.1372C120.481 47.0703 120.465 47.0201 120.465 46.9866C120.465 46.9531 120.448 46.9029 120.414 46.836C120.381 46.8025 120.364 46.7691 120.364 46.7356C120.364 46.7021 120.347 46.6686 120.313 46.6352C120.246 46.5013 120.213 46.4344 120.213 46.4344C120.179 46.4009 120.162 46.3841 120.162 46.3841C120.162 46.3507 120.146 46.3172 120.112 46.2837C120.078 46.2503 120.062 46.2168 120.062 46.1833C120.028 46.1498 120.011 46.1164 120.011 46.0829H119.961C119.961 46.0829 119.978 46.1164 120.011 46.1833V46.2837C120.045 46.3172 120.062 46.3841 120.062 46.4846C120.062 46.518 120.062 46.5515 120.062 46.585C120.095 46.585 120.112 46.6184 120.112 46.6854C120.112 46.7858 120.129 46.8695 120.162 46.9364V47.1874C120.162 47.2544 120.162 47.3046 120.162 47.3381C120.196 47.3715 120.213 47.4217 120.213 47.4887C120.213 47.7899 120.229 48.0242 120.263 48.1916V48.9949C120.297 49.1622 120.313 49.43 120.313 49.7981V51.706ZM109.936 56.8772C109.936 56.7098 109.919 56.5257 109.886 56.3249C109.886 56.1241 109.886 55.9233 109.886 55.7225V54.6179C109.852 53.8816 109.835 53.1787 109.835 52.5093C109.835 51.8399 109.819 51.2039 109.785 50.6014C109.751 50.3337 109.735 50.0659 109.735 49.7981C109.735 49.5304 109.718 49.2794 109.684 49.0451C109.684 48.7773 109.667 48.543 109.634 48.3422C109.634 48.1414 109.634 47.9573 109.634 47.7899C109.634 47.6226 109.617 47.4719 109.583 47.3381C109.583 47.2042 109.583 47.087 109.583 46.9866V46.7356C109.55 46.7356 109.533 46.7523 109.533 46.7858V46.9866C109.533 47.087 109.516 47.2042 109.483 47.3381C109.483 47.4719 109.483 47.6226 109.483 47.7899C109.483 47.9573 109.466 48.1414 109.432 48.3422C109.432 48.543 109.432 48.7773 109.432 49.0451C109.399 49.2794 109.382 49.5304 109.382 49.7981C109.382 50.0659 109.365 50.3337 109.332 50.6014C109.298 51.2039 109.281 51.8399 109.281 52.5093C109.281 53.1787 109.264 53.8816 109.231 54.6179V55.7225C109.231 55.9233 109.214 56.1241 109.18 56.3249C109.18 56.5257 109.18 56.7098 109.18 56.8772V61.5463C109.18 61.8141 109.197 62.0149 109.231 62.1488V63.8056C109.231 64.1738 109.231 64.542 109.231 64.9101C109.264 65.2448 109.281 65.5796 109.281 65.9143C109.281 66.2824 109.281 66.6171 109.281 66.9184C109.315 67.2196 109.332 67.5208 109.332 67.8221C109.365 68.1233 109.382 68.4078 109.382 68.6756C109.382 68.9099 109.399 69.1609 109.432 69.4287C109.432 69.663 109.432 69.8805 109.432 70.0814C109.466 70.2822 109.483 70.4663 109.483 70.6336C109.483 70.801 109.483 70.9683 109.483 71.1357C109.516 71.2696 109.533 71.37 109.533 71.4369V71.6879C109.533 71.7214 109.55 71.7381 109.583 71.7381V71.4369C109.583 71.37 109.583 71.2696 109.583 71.1357C109.617 70.9683 109.634 70.801 109.634 70.6336C109.634 70.4663 109.634 70.2822 109.634 70.0814C109.667 69.8805 109.684 69.663 109.684 69.4287C109.718 69.1609 109.735 68.9099 109.735 68.6756C109.735 68.4078 109.751 68.1233 109.785 67.8221C109.785 67.5208 109.785 67.2196 109.785 66.9184C109.819 66.6171 109.835 66.2824 109.835 65.9143C109.835 65.5796 109.835 65.2448 109.835 64.9101C109.869 64.542 109.886 64.1738 109.886 63.8056V62.7011C109.886 62.4333 109.902 62.2492 109.936 62.1488V56.8772ZM118.248 49.4969C118.248 49.0618 118.231 48.5263 118.198 47.8903C118.164 47.2544 118.047 46.6519 117.845 46.0829C117.644 45.5139 117.324 45.0286 116.888 44.6269C116.485 44.1918 115.88 43.9743 115.074 43.9743H113.261C112.891 44.0077 112.572 44.1583 112.304 44.4261C112.035 44.6939 111.901 45.0118 111.901 45.38V56.6764C111.901 57.0445 112.035 57.3625 112.304 57.6303C112.572 57.898 112.891 58.0319 113.261 58.0319H115.074C115.88 58.0319 116.485 57.8311 116.888 57.4295C117.324 57.0278 117.644 56.5425 117.845 55.9735C118.047 55.371 118.164 54.7685 118.198 54.1661C118.231 53.5301 118.248 52.9946 118.248 52.5595V49.4969ZM121.623 77.0098C121.623 77.0098 121.606 76.993 121.573 76.9596L121.522 76.9094C121.489 76.8424 121.455 76.7755 121.422 76.7085C121.422 76.6416 121.388 76.5747 121.321 76.5077C121.287 76.4073 121.254 76.3069 121.22 76.2065C121.187 76.0726 121.153 75.922 121.119 75.7546C121.052 75.4199 121.019 75.1019 121.019 74.8007C120.985 74.6334 120.968 74.466 120.968 74.2986C120.968 74.0978 120.968 73.8803 120.968 73.646V70.9851C120.968 70.7508 120.968 70.5165 120.968 70.2822C120.968 70.0479 120.985 69.7969 121.019 69.5291C121.019 69.2948 121.019 69.0605 121.019 68.8262C121.019 68.5919 121.002 68.3576 120.968 68.1233V67.4204C120.968 67.0857 120.952 66.8514 120.918 66.7176C120.918 66.4833 120.901 66.2657 120.868 66.0649C120.868 65.8306 120.851 65.613 120.817 65.4122C120.75 64.9436 120.683 64.542 120.616 64.2073C120.582 64.0399 120.549 63.8893 120.515 63.7554C120.481 63.588 120.431 63.4207 120.364 63.2533C120.297 63.086 120.246 62.9521 120.213 62.8517C120.179 62.7513 120.129 62.6509 120.062 62.5505C119.994 62.45 119.944 62.3664 119.91 62.2994C119.877 62.2325 119.843 62.1655 119.81 62.0986C119.776 62.0986 119.743 62.0819 119.709 62.0484C119.675 62.0484 119.659 62.0317 119.659 61.9982L119.709 62.0484C119.709 62.0819 119.726 62.1153 119.759 62.1488C119.759 62.1823 119.759 62.2158 119.759 62.2492C119.793 62.2492 119.81 62.2827 119.81 62.3496C119.843 62.3831 119.86 62.4166 119.86 62.45C119.86 62.4835 119.877 62.5337 119.91 62.6007C119.944 62.7345 119.994 62.9688 120.062 63.3035C120.095 63.4709 120.112 63.6383 120.112 63.8056C120.146 63.973 120.179 64.1403 120.213 64.3077C120.213 64.475 120.213 64.6591 120.213 64.8599C120.246 65.0273 120.263 65.2281 120.263 65.4624V71.6879C120.263 71.8218 120.263 71.939 120.263 72.0394C120.297 72.1398 120.313 72.2569 120.313 72.3908C120.313 72.6251 120.313 72.8594 120.313 73.0937C120.347 73.2945 120.381 73.4954 120.414 73.6962C120.448 73.897 120.465 74.0978 120.465 74.2986C120.498 74.4995 120.532 74.6836 120.565 74.8509C120.632 75.0517 120.683 75.2358 120.716 75.4032C120.75 75.5371 120.8 75.6877 120.868 75.855C120.935 76.0224 120.985 76.1563 121.019 76.2567C121.052 76.3571 121.103 76.4575 121.17 76.5579L121.271 76.6583C121.304 76.6918 121.321 76.7253 121.321 76.7587C121.321 76.7587 121.338 76.7755 121.371 76.8089L121.573 77.0098H121.623Z"
    fill="#F4EDE8" />
  <path
    d="M140.002 52.5595C140.002 53.9652 139.667 55.2539 138.995 56.4253C138.323 57.5968 137.416 58.534 136.275 59.2369C137.416 59.9063 138.323 60.8435 138.995 62.0484C139.667 63.2199 140.002 64.5085 140.002 65.9143V69.1776C139.969 70.2487 139.751 71.2528 139.348 72.19C138.945 73.0937 138.39 73.897 137.685 74.5999C136.98 75.2693 136.157 75.8048 135.217 76.2065C134.276 76.6081 133.269 76.8089 132.194 76.8089H127.409C127.207 76.8089 127.022 76.7253 126.854 76.5579C126.686 76.3906 126.603 76.2065 126.603 76.0057C126.603 76.2065 126.519 76.3906 126.351 76.5579C126.216 76.7253 126.032 76.8089 125.797 76.8089H123.177C123.177 76.5077 123.227 76.2902 123.328 76.1563C123.462 76.0224 123.597 75.8885 123.731 75.7546C123.865 75.5873 123.983 75.3697 124.084 75.1019C124.218 74.8342 124.285 74.4158 124.285 73.8468V61.5965C124.184 60.559 123.714 59.8059 122.875 59.3373C123.244 59.103 123.714 58.9858 124.285 58.9858V44.6269C124.285 44.0579 124.218 43.6396 124.084 43.3718C123.983 43.104 123.865 42.9032 123.731 42.7693C123.597 42.602 123.462 42.4513 123.328 42.3175C123.227 42.1836 123.177 41.966 123.177 41.6648H125.847C126.048 41.6648 126.233 41.7485 126.401 41.9158C126.569 42.0497 126.653 42.2338 126.653 42.4681C126.653 41.9326 126.922 41.6648 127.459 41.6648H132.194C133.269 41.6648 134.276 41.8656 135.217 42.2673C136.157 42.6689 136.98 43.2212 137.685 43.9241C138.39 44.5935 138.945 45.3968 139.348 46.3339C139.751 47.2711 139.969 48.2585 140.002 49.2961V52.5595ZM127.006 56.8772C127.006 56.7098 126.989 56.5257 126.955 56.3249C126.955 56.1241 126.955 55.9233 126.955 55.7225V54.6179C126.922 53.8816 126.905 53.1787 126.905 52.5093C126.905 51.8399 126.888 51.2039 126.854 50.6014C126.821 50.3337 126.804 50.0659 126.804 49.7981C126.804 49.5304 126.787 49.2794 126.754 49.0451C126.754 48.7773 126.737 48.543 126.703 48.3422C126.703 48.1414 126.703 47.9573 126.703 47.7899C126.703 47.6226 126.686 47.4719 126.653 47.3381C126.653 47.2042 126.653 47.087 126.653 46.9866V46.7356C126.619 46.7356 126.603 46.7523 126.603 46.7858V46.9866C126.603 47.087 126.586 47.2042 126.552 47.3381C126.552 47.4719 126.552 47.6226 126.552 47.7899C126.552 47.9573 126.535 48.1414 126.502 48.3422C126.502 48.543 126.502 48.7773 126.502 49.0451C126.468 49.2794 126.451 49.5304 126.451 49.7981C126.451 50.0659 126.435 50.3337 126.401 50.6014C126.367 51.2039 126.351 51.8399 126.351 52.5093C126.351 53.1787 126.334 53.8816 126.3 54.6179V55.7225C126.3 55.9233 126.283 56.1241 126.25 56.3249C126.25 56.5257 126.25 56.7098 126.25 56.8772V61.5463C126.25 61.8141 126.267 62.0149 126.3 62.1488V63.8056C126.3 64.1738 126.3 64.542 126.3 64.9101C126.334 65.2448 126.351 65.5796 126.351 65.9143C126.351 66.2824 126.351 66.6171 126.351 66.9184C126.384 67.2196 126.401 67.5208 126.401 67.8221C126.435 68.1233 126.451 68.4078 126.451 68.6756C126.451 68.9099 126.468 69.1609 126.502 69.4287C126.502 69.663 126.502 69.8805 126.502 70.0814C126.535 70.2822 126.552 70.4663 126.552 70.6336C126.552 70.801 126.552 70.9683 126.552 71.1357C126.586 71.2696 126.603 71.37 126.603 71.4369V71.6879C126.603 71.7214 126.619 71.7381 126.653 71.7381V71.4369C126.653 71.37 126.653 71.2696 126.653 71.1357C126.686 70.9683 126.703 70.801 126.703 70.6336C126.703 70.4663 126.703 70.2822 126.703 70.0814C126.737 69.8805 126.754 69.663 126.754 69.4287C126.787 69.1609 126.804 68.9099 126.804 68.6756C126.804 68.4078 126.821 68.1233 126.854 67.8221C126.854 67.5208 126.854 67.2196 126.854 66.9184C126.888 66.6171 126.905 66.2824 126.905 65.9143C126.905 65.5796 126.905 65.2448 126.905 64.9101C126.938 64.542 126.955 64.1738 126.955 63.8056V62.7011C126.955 62.4333 126.972 62.2492 127.006 62.1488V56.8772ZM137.383 68.525C137.349 68.5919 137.333 68.6756 137.333 68.776V69.9307C137.299 70.0646 137.282 70.1985 137.282 70.3324C137.282 70.4328 137.282 70.5332 137.282 70.6336C137.282 70.7006 137.265 70.7508 137.232 70.7842C137.232 70.8177 137.232 70.8679 137.232 70.9349V71.2361C137.198 71.303 137.181 71.3867 137.181 71.4871C137.181 71.5541 137.165 71.621 137.131 71.6879C137.131 71.7549 137.114 71.8051 137.081 71.8386V71.939L137.03 72.0394C137.03 72.0394 137.064 72.0226 137.131 71.9892V71.939L137.181 71.8888C137.215 71.8553 137.232 71.8386 137.232 71.8386C137.232 71.8051 137.249 71.7716 137.282 71.7381C137.316 71.6712 137.349 71.6043 137.383 71.5373C137.416 71.4369 137.45 71.3532 137.484 71.2863C137.517 71.2194 137.534 71.1859 137.534 71.1859C137.534 71.1524 137.551 71.1022 137.584 71.0353C137.618 70.9683 137.635 70.9181 137.635 70.8846C137.635 70.8512 137.652 70.801 137.685 70.734C137.719 70.6671 137.736 70.6169 137.736 70.5834C137.736 70.5165 137.752 70.4495 137.786 70.3826C137.786 70.3156 137.786 70.2654 137.786 70.232C137.819 70.165 137.836 70.0981 137.836 70.0311C137.87 69.8973 137.887 69.7634 137.887 69.6295C137.92 69.4956 137.954 69.3617 137.987 69.2278C138.021 69.1274 138.038 68.9768 138.038 68.776C138.038 68.7091 138.038 68.6421 138.038 68.5752C138.071 68.5082 138.088 68.4413 138.088 68.3743V66.6171C138.088 66.4163 138.071 66.2657 138.038 66.1653V65.9645C138.038 65.8975 138.021 65.8641 137.987 65.8641C137.987 65.8306 137.987 65.7971 137.987 65.7636C137.987 65.5963 137.971 65.4624 137.937 65.362C137.937 65.2281 137.92 65.0942 137.887 64.9603C137.853 64.8934 137.836 64.8265 137.836 64.7595C137.836 64.6926 137.819 64.6256 137.786 64.5587C137.786 64.5252 137.769 64.5085 137.736 64.5085C137.736 64.475 137.736 64.4415 137.736 64.4081C137.736 64.3746 137.719 64.3579 137.685 64.3579C137.685 64.3244 137.685 64.2909 137.685 64.2575C137.652 64.1905 137.635 64.1403 137.635 64.1068C137.635 64.0734 137.618 64.0232 137.584 63.9562C137.551 63.8893 137.534 63.8391 137.534 63.8056C137.534 63.7721 137.517 63.7219 137.484 63.655C137.45 63.6215 137.433 63.588 137.433 63.5546C137.433 63.5211 137.416 63.4876 137.383 63.4542C137.316 63.3203 137.282 63.2533 137.282 63.2533C137.249 63.2199 137.232 63.2031 137.232 63.2031C137.232 63.1697 137.215 63.1362 137.181 63.1027C137.148 63.0693 137.131 63.0358 137.131 63.0023L137.03 62.9019C137.03 62.9019 137.047 62.9354 137.081 63.0023V63.1027C137.114 63.1362 137.131 63.2031 137.131 63.3035C137.131 63.337 137.131 63.3705 137.131 63.404C137.165 63.404 137.181 63.4374 137.181 63.5044C137.181 63.6048 137.198 63.6885 137.232 63.7554V64.0064C137.232 64.0734 137.232 64.1236 137.232 64.1571C137.265 64.1905 137.282 64.2407 137.282 64.3077C137.282 64.6089 137.299 64.8432 137.333 65.0106V65.8138C137.366 65.9812 137.383 66.249 137.383 66.6171V68.525ZM135.317 65.9143C135.317 65.4791 135.301 64.9436 135.267 64.3077C135.234 63.6717 135.116 63.0693 134.914 62.5003C134.713 61.9313 134.394 61.4459 133.957 61.0443C133.554 60.6092 132.95 60.3916 132.144 60.3916H130.33C129.961 60.4251 129.642 60.5757 129.373 60.8435C129.104 61.1112 128.97 61.4292 128.97 61.7974V73.0937C128.97 73.4619 129.104 73.7799 129.373 74.0476C129.642 74.3154 129.961 74.4493 130.33 74.4493H132.144C132.95 74.4493 133.554 74.2484 133.957 73.8468C134.394 73.4451 134.713 72.9598 134.914 72.3908C135.116 71.7884 135.234 71.1859 135.267 70.5834C135.301 69.9475 135.317 69.4119 135.317 68.9768V65.9143ZM135.317 49.4969C135.317 49.0618 135.301 48.5263 135.267 47.8903C135.234 47.2544 135.116 46.6519 134.914 46.0829C134.713 45.5139 134.394 45.0286 133.957 44.6269C133.554 44.1918 132.95 43.9743 132.144 43.9743H130.33C129.961 44.0077 129.642 44.1583 129.373 44.4261C129.104 44.6939 128.97 45.0118 128.97 45.38V56.6764C128.97 57.0445 129.104 57.3625 129.373 57.6303C129.642 57.898 129.961 58.0319 130.33 58.0319H132.144C132.95 58.0319 133.554 57.8311 133.957 57.4295C134.394 57.0278 134.713 56.5425 134.914 55.9735C135.116 55.371 135.234 54.7685 135.267 54.1661C135.301 53.5301 135.317 52.9946 135.317 52.5595V49.4969ZM137.484 54.4673C137.517 54.4004 137.534 54.3669 137.534 54.3669C137.534 54.3334 137.551 54.2832 137.584 54.2163C137.618 54.1493 137.635 54.0991 137.635 54.0657C137.635 53.9987 137.652 53.9318 137.685 53.8648C137.719 53.7979 137.736 53.7477 137.736 53.7142C137.736 53.6807 137.752 53.6305 137.786 53.5636C137.786 53.4967 137.786 53.4464 137.786 53.413C137.819 53.346 137.836 53.2791 137.836 53.2122C137.87 53.0783 137.887 52.9444 137.887 52.8105C137.92 52.6766 137.954 52.5427 137.987 52.4089C138.021 52.3084 138.038 52.1578 138.038 51.957C138.038 51.8901 138.038 51.8231 138.038 51.7562C138.071 51.6892 138.088 51.6223 138.088 51.5554V49.7981C138.088 49.5973 138.071 49.4467 138.038 49.3463V49.1455C138.038 49.0785 138.021 49.0451 137.987 49.0451C137.987 49.0116 137.987 48.9614 137.987 48.8944C137.987 48.7271 137.954 48.4761 137.887 48.1414C137.853 48.0744 137.836 48.0075 137.836 47.9405C137.836 47.8736 137.819 47.8066 137.786 47.7397C137.786 47.7062 137.769 47.6895 137.736 47.6895C137.736 47.656 137.736 47.6226 137.736 47.5891C137.736 47.5556 137.719 47.5389 137.685 47.5389C137.685 47.5054 137.685 47.4719 137.685 47.4385C137.652 47.3715 137.635 47.3213 137.635 47.2879C137.635 47.2544 137.618 47.2042 137.584 47.1372C137.551 47.0703 137.534 47.0201 137.534 46.9866C137.534 46.9531 137.517 46.9029 137.484 46.836C137.45 46.8025 137.433 46.7691 137.433 46.7356C137.433 46.7021 137.416 46.6686 137.383 46.6352C137.316 46.5013 137.282 46.4344 137.282 46.4344C137.249 46.4009 137.232 46.3841 137.232 46.3841C137.232 46.3507 137.215 46.3172 137.181 46.2837C137.148 46.2503 137.131 46.2168 137.131 46.1833C137.097 46.1498 137.081 46.1164 137.081 46.0829H137.03C137.03 46.0829 137.047 46.1164 137.081 46.1833V46.2837C137.114 46.3172 137.131 46.3841 137.131 46.4846C137.131 46.518 137.131 46.5515 137.131 46.585C137.165 46.585 137.181 46.6184 137.181 46.6854C137.181 46.7858 137.198 46.8695 137.232 46.9364V47.1874C137.232 47.2544 137.232 47.3046 137.232 47.3381C137.265 47.3715 137.282 47.4217 137.282 47.4887C137.282 47.7899 137.299 48.0242 137.333 48.1916V48.9949C137.366 49.1622 137.383 49.43 137.383 49.7981V51.706C137.349 51.7729 137.333 51.8566 137.333 51.957V53.1117C137.299 53.2456 137.282 53.3795 137.282 53.5134C137.282 53.6138 137.282 53.7142 137.282 53.8146C137.282 53.8816 137.265 53.9318 137.232 53.9652C137.232 53.9987 137.232 54.0489 137.232 54.1159V54.4171C137.198 54.484 137.181 54.5677 137.181 54.6681C137.181 54.7351 137.165 54.802 137.131 54.8689C137.131 54.9359 137.114 54.9861 137.081 55.0196V55.12L137.03 55.2204C137.03 55.2204 137.064 55.2037 137.131 55.1702V55.12L137.181 55.0698C137.215 55.0363 137.232 55.0196 137.232 55.0196C137.232 54.9861 137.249 54.9526 137.282 54.9192C137.316 54.8522 137.349 54.7853 137.383 54.7183C137.416 54.6179 137.45 54.5342 137.484 54.4673Z"
    fill="#F4EDE8" />
  <path
    d="M157.173 73.7464C157.173 74.3489 157.223 74.8007 157.324 75.1019C157.458 75.3697 157.592 75.5873 157.727 75.7546C157.861 75.8885 157.979 76.0224 158.079 76.1563C158.214 76.2902 158.281 76.5077 158.281 76.8089H144.579C144.377 76.8089 144.193 76.7253 144.025 76.5579C143.857 76.3906 143.773 76.2065 143.773 76.0057C143.773 76.2065 143.689 76.3906 143.521 76.5579C143.386 76.7253 143.202 76.8089 142.967 76.8089H140.347C140.347 76.5077 140.398 76.2902 140.498 76.1563C140.633 76.0224 140.767 75.8885 140.901 75.7546C141.036 75.5873 141.153 75.3697 141.254 75.1019C141.388 74.8342 141.455 74.4158 141.455 73.8468V61.5965C141.355 60.559 140.885 59.8059 140.045 59.3373C140.414 59.103 140.885 58.9858 141.455 58.9858V44.6269C141.455 44.0579 141.388 43.6396 141.254 43.3718C141.153 43.104 141.036 42.9032 140.901 42.7693C140.767 42.602 140.633 42.4513 140.498 42.3175C140.398 42.1836 140.347 41.966 140.347 41.6648H143.017C143.219 41.6648 143.403 41.7485 143.571 41.9158C143.739 42.0497 143.823 42.2338 143.823 42.4681C143.823 41.9326 144.092 41.6648 144.629 41.6648H158.281C158.281 41.966 158.214 42.1836 158.079 42.3175C157.979 42.4513 157.861 42.602 157.727 42.7693C157.592 42.9032 157.458 43.1208 157.324 43.422C157.223 43.6898 157.173 44.1249 157.173 44.7273V51.4047C155.997 51.4047 155.09 51.1872 154.452 50.7521C153.848 50.2835 153.394 49.7647 153.092 49.1957C152.723 48.5597 152.521 47.8066 152.488 46.9364V45.38C152.488 45.0118 152.353 44.6939 152.085 44.4261C151.816 44.1583 151.497 44.0077 151.128 43.9743H147.5C147.131 44.0077 146.812 44.1583 146.543 44.4261C146.275 44.6939 146.14 45.0118 146.14 45.38V56.6764C146.14 57.0445 146.275 57.3625 146.543 57.6303C146.812 57.898 147.131 58.0319 147.5 58.0319H147.853C148.223 58.0319 148.525 57.898 148.76 57.6303C149.029 57.3625 149.163 57.0445 149.163 56.6764V56.6262C149.196 56.1241 149.331 55.689 149.566 55.3208C149.767 54.9861 150.07 54.6849 150.473 54.4171C150.876 54.1493 151.463 54.0154 152.236 54.0154V64.4081C151.463 64.4081 150.876 64.2742 150.473 64.0064C150.07 63.7387 149.767 63.4374 149.566 63.1027C149.331 62.7345 149.196 62.2994 149.163 61.7974C149.163 61.4292 149.029 61.1112 148.76 60.8435C148.525 60.5757 148.223 60.4251 147.853 60.3916H147.5C147.131 60.4251 146.812 60.5757 146.543 60.8435C146.275 61.1112 146.14 61.4292 146.14 61.7974V73.0937C146.14 73.4619 146.275 73.7799 146.543 74.0476C146.812 74.3154 147.131 74.4493 147.5 74.4493H151.128C151.497 74.4493 151.816 74.3154 152.085 74.0476C152.353 73.7799 152.488 73.4619 152.488 73.0937V71.4871C152.521 70.6504 152.723 69.914 153.092 69.2781C153.394 68.7091 153.848 68.1903 154.452 67.7217C155.09 67.2531 155.997 67.0188 157.173 67.0188V73.7464ZM144.176 56.8772C144.176 56.7098 144.159 56.5257 144.125 56.3249C144.125 56.1241 144.125 55.9233 144.125 55.7225V54.6179C144.092 53.8816 144.075 53.1787 144.075 52.5093C144.075 51.8399 144.058 51.2039 144.025 50.6014C143.991 50.3337 143.974 50.0659 143.974 49.7981C143.974 49.5304 143.957 49.2794 143.924 49.0451C143.924 48.7773 143.907 48.543 143.873 48.3422C143.873 48.1414 143.873 47.9573 143.873 47.7899C143.873 47.6226 143.857 47.4719 143.823 47.3381C143.823 47.2042 143.823 47.087 143.823 46.9866V46.7356C143.789 46.7356 143.773 46.7523 143.773 46.7858V46.9866C143.773 47.087 143.756 47.2042 143.722 47.3381C143.722 47.4719 143.722 47.6226 143.722 47.7899C143.722 47.9573 143.706 48.1414 143.672 48.3422C143.672 48.543 143.672 48.7773 143.672 49.0451C143.638 49.2794 143.622 49.5304 143.622 49.7981C143.622 50.0659 143.605 50.3337 143.571 50.6014C143.538 51.2039 143.521 51.8399 143.521 52.5093C143.521 53.1787 143.504 53.8816 143.47 54.6179V55.7225C143.47 55.9233 143.454 56.1241 143.42 56.3249C143.42 56.5257 143.42 56.7098 143.42 56.8772V61.5463C143.42 61.8141 143.437 62.0149 143.47 62.1488V63.8056C143.47 64.1738 143.47 64.542 143.47 64.9101C143.504 65.2448 143.521 65.5796 143.521 65.9143C143.521 66.2824 143.521 66.6171 143.521 66.9184C143.554 67.2196 143.571 67.5208 143.571 67.8221C143.605 68.1233 143.622 68.4078 143.622 68.6756C143.622 68.9099 143.638 69.1609 143.672 69.4287C143.672 69.663 143.672 69.8805 143.672 70.0814C143.706 70.2822 143.722 70.4663 143.722 70.6336C143.722 70.801 143.722 70.9683 143.722 71.1357C143.756 71.2696 143.773 71.37 143.773 71.4369V71.6879C143.773 71.7214 143.789 71.7381 143.823 71.7381V71.4369C143.823 71.37 143.823 71.2696 143.823 71.1357C143.857 70.9683 143.873 70.801 143.873 70.6336C143.873 70.4663 143.873 70.2822 143.873 70.0814C143.907 69.8805 143.924 69.663 143.924 69.4287C143.957 69.1609 143.974 68.9099 143.974 68.6756C143.974 68.4078 143.991 68.1233 144.025 67.8221C144.025 67.5208 144.025 67.2196 144.025 66.9184C144.058 66.6171 144.075 66.2824 144.075 65.9143C144.075 65.5796 144.075 65.2448 144.075 64.9101C144.109 64.542 144.125 64.1738 144.125 63.8056V62.7011C144.125 62.4333 144.142 62.2492 144.176 62.1488V56.8772Z"
    fill="#F4EDE8" />
  <path
    d="M177.438 78.9176C177.807 78.9845 178.059 79.1017 178.193 79.269C178.361 79.4364 178.479 79.6037 178.546 79.7711C178.613 79.9719 178.647 80.1895 178.647 80.4238C177.572 80.4238 176.565 80.2899 175.624 80.0221C174.684 79.7544 173.844 79.3192 173.105 78.7168C172.4 78.1143 171.829 77.3277 171.393 76.3571C170.99 75.3864 170.788 74.1982 170.788 72.7925V65.9143C170.788 65.4791 170.771 64.9436 170.738 64.3077C170.704 63.6717 170.587 63.0693 170.385 62.5003C170.184 61.9313 169.865 61.4459 169.428 61.0443C169.025 60.6092 168.421 60.3916 167.615 60.3916H165.549C165.247 60.4585 164.978 60.6259 164.743 60.8937C164.542 61.128 164.441 61.4125 164.441 61.7472V73.7464C164.441 74.3489 164.491 74.8007 164.592 75.1019C164.726 75.3697 164.861 75.5873 164.995 75.7546C165.129 75.8885 165.247 76.0224 165.348 76.1563C165.482 76.2902 165.549 76.5077 165.549 76.8089H162.879C162.678 76.8089 162.493 76.7253 162.325 76.5579C162.157 76.3906 162.073 76.2065 162.073 76.0057C162.073 76.2065 161.989 76.3906 161.821 76.5579C161.687 76.7253 161.502 76.8089 161.267 76.8089H158.648C158.648 76.5077 158.698 76.2902 158.799 76.1563C158.933 76.0224 159.067 75.8885 159.202 75.7546C159.336 75.5873 159.454 75.3697 159.554 75.1019C159.689 74.8342 159.756 74.4158 159.756 73.8468V61.5965C159.655 60.559 159.185 59.8059 158.345 59.3373C158.715 59.103 159.185 58.9858 159.756 58.9858V44.6269C159.756 44.0579 159.689 43.6396 159.554 43.3718C159.454 43.104 159.336 42.9032 159.202 42.7693C159.067 42.602 158.933 42.4513 158.799 42.3175C158.698 42.1836 158.648 41.966 158.648 41.6648H161.318C161.519 41.6648 161.704 41.7485 161.872 41.9158C162.04 42.0497 162.124 42.2338 162.124 42.4681C162.124 41.9326 162.392 41.6648 162.93 41.6648H167.665C168.74 41.6648 169.747 41.8656 170.687 42.2673C171.628 42.6689 172.451 43.2212 173.156 43.9241C173.861 44.5935 174.415 45.3968 174.818 46.3339C175.221 47.2711 175.44 48.2585 175.473 49.2961V52.5595C175.473 53.9652 175.137 55.2539 174.466 56.4253C173.794 57.5968 172.887 58.534 171.745 59.2369C172.887 59.9063 173.794 60.8435 174.466 62.0484C175.137 63.2199 175.473 64.5085 175.473 65.9143V72.5916C175.473 73.2945 175.473 74.0141 175.473 74.7505C175.507 75.4534 175.591 76.1061 175.725 76.7085C175.859 77.2775 176.061 77.7629 176.329 78.1645C176.598 78.5662 176.968 78.8172 177.438 78.9176ZM172.854 51.706C172.82 51.7729 172.803 51.8566 172.803 51.957V53.1117C172.77 53.2456 172.753 53.3795 172.753 53.5134C172.753 53.6138 172.753 53.7142 172.753 53.8146C172.753 53.8816 172.736 53.9318 172.702 53.9652C172.702 53.9987 172.702 54.0489 172.702 54.1159V54.4171C172.669 54.484 172.652 54.5677 172.652 54.6681C172.652 54.7351 172.635 54.802 172.602 54.8689C172.602 54.9359 172.585 54.9861 172.551 55.0196V55.12L172.501 55.2204C172.501 55.2204 172.535 55.2037 172.602 55.1702V55.12L172.652 55.0698C172.686 55.0363 172.702 55.0196 172.702 55.0196C172.702 54.9861 172.719 54.9526 172.753 54.9192C172.786 54.8522 172.82 54.7853 172.854 54.7183C172.887 54.6179 172.921 54.5342 172.954 54.4673C172.988 54.4004 173.005 54.3669 173.005 54.3669C173.005 54.3334 173.021 54.2832 173.055 54.2163C173.089 54.1493 173.105 54.0991 173.105 54.0657C173.105 53.9987 173.122 53.9318 173.156 53.8648C173.189 53.7979 173.206 53.7477 173.206 53.7142C173.206 53.6807 173.223 53.6305 173.257 53.5636C173.257 53.4967 173.257 53.4464 173.257 53.413C173.29 53.346 173.307 53.2791 173.307 53.2122C173.341 53.0783 173.357 52.9444 173.357 52.8105C173.391 52.6766 173.424 52.5427 173.458 52.4089C173.492 52.3084 173.508 52.1578 173.508 51.957C173.508 51.8901 173.508 51.8231 173.508 51.7562C173.542 51.6892 173.559 51.6223 173.559 51.5554V49.7981C173.559 49.5973 173.542 49.4467 173.508 49.3463V49.1455C173.508 49.0785 173.492 49.0451 173.458 49.0451C173.458 49.0116 173.458 48.9614 173.458 48.8944C173.458 48.7271 173.424 48.4761 173.357 48.1414C173.324 48.0744 173.307 48.0075 173.307 47.9405C173.307 47.8736 173.29 47.8066 173.257 47.7397C173.257 47.7062 173.24 47.6895 173.206 47.6895C173.206 47.656 173.206 47.6226 173.206 47.5891C173.206 47.5556 173.189 47.5389 173.156 47.5389C173.156 47.5054 173.156 47.4719 173.156 47.4385C173.122 47.3715 173.105 47.3213 173.105 47.2879C173.105 47.2544 173.089 47.2042 173.055 47.1372C173.021 47.0703 173.005 47.0201 173.005 46.9866C173.005 46.9531 172.988 46.9029 172.954 46.836C172.921 46.8025 172.904 46.7691 172.904 46.7356C172.904 46.7021 172.887 46.6686 172.854 46.6352C172.786 46.5013 172.753 46.4344 172.753 46.4344C172.719 46.4009 172.702 46.3841 172.702 46.3841C172.702 46.3507 172.686 46.3172 172.652 46.2837C172.618 46.2503 172.602 46.2168 172.602 46.1833C172.568 46.1498 172.551 46.1164 172.551 46.0829H172.501C172.501 46.0829 172.518 46.1164 172.551 46.1833V46.2837C172.585 46.3172 172.602 46.3841 172.602 46.4846C172.602 46.518 172.602 46.5515 172.602 46.585C172.635 46.585 172.652 46.6184 172.652 46.6854C172.652 46.7858 172.669 46.8695 172.702 46.9364V47.1874C172.702 47.2544 172.702 47.3046 172.702 47.3381C172.736 47.3715 172.753 47.4217 172.753 47.4887C172.753 47.7899 172.77 48.0242 172.803 48.1916V48.9949C172.837 49.1622 172.854 49.43 172.854 49.7981V51.706ZM162.476 56.8772C162.476 56.7098 162.459 56.5257 162.426 56.3249C162.426 56.1241 162.426 55.9233 162.426 55.7225V54.6179C162.392 53.8816 162.375 53.1787 162.375 52.5093C162.375 51.8399 162.359 51.2039 162.325 50.6014C162.291 50.3337 162.275 50.0659 162.275 49.7981C162.275 49.5304 162.258 49.2794 162.224 49.0451C162.224 48.7773 162.208 48.543 162.174 48.3422C162.174 48.1414 162.174 47.9573 162.174 47.7899C162.174 47.6226 162.157 47.4719 162.124 47.3381C162.124 47.2042 162.124 47.087 162.124 46.9866V46.7356C162.09 46.7356 162.073 46.7523 162.073 46.7858V46.9866C162.073 47.087 162.056 47.2042 162.023 47.3381C162.023 47.4719 162.023 47.6226 162.023 47.7899C162.023 47.9573 162.006 48.1414 161.972 48.3422C161.972 48.543 161.972 48.7773 161.972 49.0451C161.939 49.2794 161.922 49.5304 161.922 49.7981C161.922 50.0659 161.905 50.3337 161.872 50.6014C161.838 51.2039 161.821 51.8399 161.821 52.5093C161.821 53.1787 161.805 53.8816 161.771 54.6179V55.7225C161.771 55.9233 161.754 56.1241 161.721 56.3249C161.721 56.5257 161.721 56.7098 161.721 56.8772V61.5463C161.721 61.8141 161.737 62.0149 161.771 62.1488V63.8056C161.771 64.1738 161.771 64.542 161.771 64.9101C161.805 65.2448 161.821 65.5796 161.821 65.9143C161.821 66.2824 161.821 66.6171 161.821 66.9184C161.855 67.2196 161.872 67.5208 161.872 67.8221C161.905 68.1233 161.922 68.4078 161.922 68.6756C161.922 68.9099 161.939 69.1609 161.972 69.4287C161.972 69.663 161.972 69.8805 161.972 70.0814C162.006 70.2822 162.023 70.4663 162.023 70.6336C162.023 70.801 162.023 70.9683 162.023 71.1357C162.056 71.2696 162.073 71.37 162.073 71.4369V71.6879C162.073 71.7214 162.09 71.7381 162.124 71.7381V71.4369C162.124 71.37 162.124 71.2696 162.124 71.1357C162.157 70.9683 162.174 70.801 162.174 70.6336C162.174 70.4663 162.174 70.2822 162.174 70.0814C162.208 69.8805 162.224 69.663 162.224 69.4287C162.258 69.1609 162.275 68.9099 162.275 68.6756C162.275 68.4078 162.291 68.1233 162.325 67.8221C162.325 67.5208 162.325 67.2196 162.325 66.9184C162.359 66.6171 162.375 66.2824 162.375 65.9143C162.375 65.5796 162.375 65.2448 162.375 64.9101C162.409 64.542 162.426 64.1738 162.426 63.8056V62.7011C162.426 62.4333 162.443 62.2492 162.476 62.1488V56.8772ZM170.788 49.4969C170.788 49.0618 170.771 48.5263 170.738 47.8903C170.704 47.2544 170.587 46.6519 170.385 46.0829C170.184 45.5139 169.865 45.0286 169.428 44.6269C169.025 44.1918 168.421 43.9743 167.615 43.9743H165.801C165.432 44.0077 165.113 44.1583 164.844 44.4261C164.575 44.6939 164.441 45.0118 164.441 45.38V56.6764C164.441 57.0445 164.575 57.3625 164.844 57.6303C165.113 57.898 165.432 58.0319 165.801 58.0319H167.615C168.421 58.0319 169.025 57.8311 169.428 57.4295C169.865 57.0278 170.184 56.5425 170.385 55.9735C170.587 55.371 170.704 54.7685 170.738 54.1661C170.771 53.5301 170.788 52.9946 170.788 52.5595V49.4969ZM174.163 77.0098C174.163 77.0098 174.147 76.993 174.113 76.9596L174.063 76.9094C174.029 76.8424 173.995 76.7755 173.962 76.7085C173.962 76.6416 173.928 76.5747 173.861 76.5077C173.827 76.4073 173.794 76.3069 173.76 76.2065C173.727 76.0726 173.693 75.922 173.66 75.7546C173.592 75.4199 173.559 75.1019 173.559 74.8007C173.525 74.6334 173.508 74.466 173.508 74.2986C173.508 74.0978 173.508 73.8803 173.508 73.646V70.9851C173.508 70.7508 173.508 70.5165 173.508 70.2822C173.508 70.0479 173.525 69.7969 173.559 69.5291C173.559 69.2948 173.559 69.0605 173.559 68.8262C173.559 68.5919 173.542 68.3576 173.508 68.1233V67.4204C173.508 67.0857 173.492 66.8514 173.458 66.7176C173.458 66.4833 173.441 66.2657 173.408 66.0649C173.408 65.8306 173.391 65.613 173.357 65.4122C173.29 64.9436 173.223 64.542 173.156 64.2073C173.122 64.0399 173.089 63.8893 173.055 63.7554C173.021 63.588 172.971 63.4207 172.904 63.2533C172.837 63.086 172.786 62.9521 172.753 62.8517C172.719 62.7513 172.669 62.6509 172.602 62.5505C172.535 62.45 172.484 62.3664 172.451 62.2994C172.417 62.2325 172.383 62.1655 172.35 62.0986C172.316 62.0986 172.283 62.0819 172.249 62.0484C172.215 62.0484 172.199 62.0317 172.199 61.9982L172.249 62.0484C172.249 62.0819 172.266 62.1153 172.299 62.1488C172.299 62.1823 172.299 62.2158 172.299 62.2492C172.333 62.2492 172.35 62.2827 172.35 62.3496C172.383 62.3831 172.4 62.4166 172.4 62.45C172.4 62.4835 172.417 62.5337 172.451 62.6007C172.484 62.7345 172.535 62.9688 172.602 63.3035C172.635 63.4709 172.652 63.6383 172.652 63.8056C172.686 63.973 172.719 64.1403 172.753 64.3077C172.753 64.475 172.753 64.6591 172.753 64.8599C172.786 65.0273 172.803 65.2281 172.803 65.4624V71.6879C172.803 71.8218 172.803 71.939 172.803 72.0394C172.837 72.1398 172.854 72.2569 172.854 72.3908C172.854 72.6251 172.854 72.8594 172.854 73.0937C172.887 73.2945 172.921 73.4954 172.954 73.6962C172.988 73.897 173.005 74.0978 173.005 74.2986C173.038 74.4995 173.072 74.6836 173.105 74.8509C173.173 75.0517 173.223 75.2358 173.257 75.4032C173.29 75.5371 173.341 75.6877 173.408 75.855C173.475 76.0224 173.525 76.1563 173.559 76.2567C173.592 76.3571 173.643 76.4575 173.71 76.5579L173.811 76.6583C173.844 76.6918 173.861 76.7253 173.861 76.7587C173.861 76.7587 173.878 76.7755 173.911 76.8089L174.113 77.0098H174.163Z"
    fill="#F4EDE8" />
  <ellipse cx="2.69869" cy="2.6896" rx="2.69869" ry="2.6896" transform="matrix(1 0 0 -1 186.21 62.7153)"
    fill="#999591" />
  <ellipse cx="2.69869" cy="2.6896" rx="2.69869" ry="2.6896" transform="matrix(1 0 0 -1 14.393 62.7153)"
    fill="#999591" />
</svg>